<?xml version="1.0" encoding="utf-8"?>
<!DOCTYPE svg PUBLIC "-//W3C//DTD SVG 1.1//EN" "http://www.w3.org/Graphics/SVG/1.1/DTD/svg11.dtd">
<svg xmlns="http://www.w3.org/2000/svg" xmlns:xlink="http://www.w3.org/1999/xlink" version="1.1" class="marks" width="739" height="215" viewBox="0 0 739 215"><rect width="739" height="215" fill="white"/><g fill="none" stroke-miterlimit="10" transform="translate(34,28)"><g class="mark-group role-frame root" role="graphics-object" aria-roledescription="group mark container"><g transform="translate(0,0)"><path class="background" aria-hidden="true" d="M0.5,0.5h700v150h-700Z" stroke="#ddd"/><g><g class="mark-group role-axis" aria-hidden="true"><g transform="translate(0.5,150.5)"><path class="background" aria-hidden="true" d="M0,0h0v0h0Z" pointer-events="none"/><g><g class="mark-rule role-axis-grid" pointer-events="none"><line transform="translate(30,-150)" x2="0" y2="150" stroke="#ddd" stroke-width="1" opacity="1"/><line transform="translate(101,-150)" x2="0" y2="150" stroke="#ddd" stroke-width="1" opacity="1"/><line transform="translate(172,-150)" x2="0" y2="150" stroke="#ddd" stroke-width="1" opacity="1"/><line transform="translate(243,-150)" x2="0" y2="150" stroke="#ddd" stroke-width="1" opacity="1"/><line transform="translate(314,-150)" x2="0" y2="150" stroke="#ddd" stroke-width="1" opacity="1"/><line transform="translate(385,-150)" x2="0" y2="150" stroke="#ddd" stroke-width="1" opacity="1"/><line transform="translate(456,-150)" x2="0" y2="150" stroke="#ddd" stroke-width="1" opacity="1"/><line transform="translate(527,-150)" x2="0" y2="150" stroke="#ddd" stroke-width="1" opacity="1"/><line transform="translate(598,-150)" x2="0" y2="150" stroke="#ddd" stroke-width="1" opacity="1"/><line transform="translate(669,-150)" x2="0" y2="150" stroke="#ddd" stroke-width="1" opacity="1"/></g></g><path class="foreground" aria-hidden="true" d="" pointer-events="none" display="none"/></g></g><g class="mark-group role-axis" aria-hidden="true"><g transform="translate(0.5,0.5)"><path class="background" aria-hidden="true" d="M0,0h0v0h0Z" pointer-events="none"/><g><g class="mark-rule role-axis-grid" pointer-events="none"><line transform="translate(0,150)" x2="700" y2="0" stroke="#ddd" stroke-width="1" opacity="1"/><line transform="translate(0,120)" x2="700" y2="0" stroke="#ddd" stroke-width="1" opacity="1"/><line transform="translate(0,90)" x2="700" y2="0" stroke="#ddd" stroke-width="1" opacity="1"/><line transform="translate(0,60)" x2="700" y2="0" stroke="#ddd" stroke-width="1" opacity="1"/><line transform="translate(0,30)" x2="700" y2="0" stroke="#ddd" stroke-width="1" opacity="1"/><line transform="translate(0,0)" x2="700" y2="0" stroke="#ddd" stroke-width="1" opacity="1"/></g></g><path class="foreground" aria-hidden="true" d="" pointer-events="none" display="none"/></g></g><g class="mark-group role-axis" role="graphics-symbol" aria-roledescription="axis" aria-label="X-axis titled 'Date' for a time scale with values from Thursday, 16 April 2020, 2:00:00 AM to Wednesday, 24 June 2020, 2:00:00 AM"><g transform="translate(0.5,150.5)"><path class="background" aria-hidden="true" d="M0,0h0v0h0Z" pointer-events="none"/><g><g class="mark-rule role-axis-tick" pointer-events="none"><line transform="translate(30,0)" x2="0" y2="5" stroke="#888" stroke-width="1" opacity="1"/><line transform="translate(101,0)" x2="0" y2="5" stroke="#888" stroke-width="1" opacity="1"/><line transform="translate(172,0)" x2="0" y2="5" stroke="#888" stroke-width="1" opacity="1"/><line transform="translate(243,0)" x2="0" y2="5" stroke="#888" stroke-width="1" opacity="1"/><line transform="translate(314,0)" x2="0" y2="5" stroke="#888" stroke-width="1" opacity="1"/><line transform="translate(385,0)" x2="0" y2="5" stroke="#888" stroke-width="1" opacity="1"/><line transform="translate(456,0)" x2="0" y2="5" stroke="#888" stroke-width="1" opacity="1"/><line transform="translate(527,0)" x2="0" y2="5" stroke="#888" stroke-width="1" opacity="1"/><line transform="translate(598,0)" x2="0" y2="5" stroke="#888" stroke-width="1" opacity="1"/><line transform="translate(669,0)" x2="0" y2="5" stroke="#888" stroke-width="1" opacity="1"/></g><g class="mark-text role-axis-label" pointer-events="none"><text text-anchor="middle" transform="translate(29.58937198067633,15)" font-family="sans-serif" font-size="10px" fill="#000" opacity="1">Apr 19</text><text text-anchor="middle" transform="translate(100.60386473429952,15)" font-family="sans-serif" font-size="10px" fill="#000" opacity="1">Apr 26</text><text text-anchor="middle" transform="translate(171.6183574879227,15)" font-family="sans-serif" font-size="10px" fill="#000" opacity="1">May 03</text><text text-anchor="middle" transform="translate(242.6328502415459,15)" font-family="sans-serif" font-size="10px" fill="#000" opacity="1">May 10</text><text text-anchor="middle" transform="translate(313.6473429951691,15)" font-family="sans-serif" font-size="10px" fill="#000" opacity="1">May 17</text><text text-anchor="middle" transform="translate(384.66183574879227,15)" font-family="sans-serif" font-size="10px" fill="#000" opacity="1">May 24</text><text text-anchor="middle" transform="translate(455.67632850241546,15)" font-family="sans-serif" font-size="10px" fill="#000" opacity="1">May 31</text><text text-anchor="middle" transform="translate(526.6908212560387,15)" font-family="sans-serif" font-size="10px" fill="#000" opacity="1">Jun 07</text><text text-anchor="middle" transform="translate(597.7053140096618,15)" font-family="sans-serif" font-size="10px" fill="#000" opacity="1">Jun 14</text><text text-anchor="middle" transform="translate(668.7198067632851,15)" font-family="sans-serif" font-size="10px" fill="#000" opacity="1">Jun 21</text></g><g class="mark-rule role-axis-domain" pointer-events="none"><line transform="translate(0,0)" x2="700" y2="0" stroke="#888" stroke-width="1" opacity="1"/></g><g class="mark-text role-axis-title" pointer-events="none"><text text-anchor="middle" transform="translate(350,30)" font-family="sans-serif" font-size="11px" font-weight="bold" fill="#000" opacity="1">Date</text></g></g><path class="foreground" aria-hidden="true" d="" pointer-events="none" display="none"/></g></g><g class="mark-group role-axis" role="graphics-symbol" aria-roledescription="axis" aria-label="Y-axis titled 'Number of prevalent COVID-19 cases' for a linear scale with values from 0 to 5"><g transform="translate(0.5,0.5)"><path class="background" aria-hidden="true" d="M0,0h0v0h0Z" pointer-events="none"/><g><g class="mark-rule role-axis-tick" pointer-events="none"><line transform="translate(0,150)" x2="-5" y2="0" stroke="#888" stroke-width="1" opacity="1"/><line transform="translate(0,120)" x2="-5" y2="0" stroke="#888" stroke-width="1" opacity="1"/><line transform="translate(0,90)" x2="-5" y2="0" stroke="#888" stroke-width="1" opacity="1"/><line transform="translate(0,60)" x2="-5" y2="0" stroke="#888" stroke-width="1" opacity="1"/><line transform="translate(0,30)" x2="-5" y2="0" stroke="#888" stroke-width="1" opacity="1"/><line transform="translate(0,0)" x2="-5" y2="0" stroke="#888" stroke-width="1" opacity="1"/></g><g class="mark-text role-axis-label" pointer-events="none"><text text-anchor="end" transform="translate(-7,153)" font-family="sans-serif" font-size="10px" fill="#000" opacity="1">0</text><text text-anchor="end" transform="translate(-7,123)" font-family="sans-serif" font-size="10px" fill="#000" opacity="1">1</text><text text-anchor="end" transform="translate(-7,93)" font-family="sans-serif" font-size="10px" fill="#000" opacity="1">2</text><text text-anchor="end" transform="translate(-7,63)" font-family="sans-serif" font-size="10px" fill="#000" opacity="1">3</text><text text-anchor="end" transform="translate(-7,32.99999999999999)" font-family="sans-serif" font-size="10px" fill="#000" opacity="1">4</text><text text-anchor="end" transform="translate(-7,3)" font-family="sans-serif" font-size="10px" fill="#000" opacity="1">5</text></g><g class="mark-rule role-axis-domain" pointer-events="none"><line transform="translate(0,150)" x2="0" y2="-150" stroke="#888" stroke-width="1" opacity="1"/></g><g class="mark-text role-axis-title" pointer-events="none"><text text-anchor="middle" transform="translate(-17,75) rotate(-90) translate(0,-2)" font-family="sans-serif" font-size="11px" font-weight="bold" fill="#000" opacity="1">Number of prevalent COVID-19 cases</text></g></g><path class="foreground" aria-hidden="true" d="" pointer-events="none" display="none"/></g></g><g class="mark-line role-mark layer_0_marks" role="graphics-object" aria-roledescription="line mark container"><path aria-label="date: Apr 16, 2020; currentcases: 0" role="graphics-symbol" aria-roledescription="line mark" d="M10.144927536231885,150L20.28985507246377,150L30.434782608695652,150L40.57971014492754,90L50.72463768115942,150L60.869565217391305,120L71.01449275362319,90L81.15942028985508,90M101.44927536231884,60ZM121.73913043478261,29.999999999999993ZM142.02898550724638,0ZM182.6086956521739,29.999999999999993L192.7536231884058,60L202.8985507246377,90L213.0434782608696,60M253.6231884057971,0ZM324.6376811594203,120L334.7826086956522,120M405.7971014492754,90ZM426.0869565217392,60ZM537.6811594202899,90L547.8260869565217,90L557.9710144927536,120L568.1159420289855,60M608.695652173913,90ZM639.1304347826086,90L649.2753623188406,60" stroke="#004b96" stroke-width="2" opacity="0.8"/></g><g class="mark-symbol role-mark layer_1_marks" role="graphics-object" aria-roledescription="symbol mark container"><path aria-label="date: Apr 17, 2020; currentcases: 0" role="graphics-symbol" aria-roledescription="point" transform="translate(10.144927536231885,150)" d="M5,0A5,5,0,1,1,-5,0A5,5,0,1,1,5,0" fill="#004b96" stroke-width="2" opacity="0.6"/><path aria-label="date: Apr 18, 2020; currentcases: 0" role="graphics-symbol" aria-roledescription="point" transform="translate(20.28985507246377,150)" d="M5,0A5,5,0,1,1,-5,0A5,5,0,1,1,5,0" fill="#004b96" stroke-width="2" opacity="0.6"/><path aria-label="date: Apr 19, 2020; currentcases: 0" role="graphics-symbol" aria-roledescription="point" transform="translate(30.434782608695652,150)" d="M5,0A5,5,0,1,1,-5,0A5,5,0,1,1,5,0" fill="#004b96" stroke-width="2" opacity="0.6"/><path aria-label="date: Apr 20, 2020; currentcases: 2" role="graphics-symbol" aria-roledescription="point" transform="translate(40.57971014492754,90)" d="M5,0A5,5,0,1,1,-5,0A5,5,0,1,1,5,0" fill="#004b96" stroke-width="2" opacity="0.6"/><path aria-label="date: Apr 21, 2020; currentcases: 0" role="graphics-symbol" aria-roledescription="point" transform="translate(50.72463768115942,150)" d="M5,0A5,5,0,1,1,-5,0A5,5,0,1,1,5,0" fill="#004b96" stroke-width="2" opacity="0.6"/><path aria-label="date: Apr 22, 2020; currentcases: 1" role="graphics-symbol" aria-roledescription="point" transform="translate(60.869565217391305,120)" d="M5,0A5,5,0,1,1,-5,0A5,5,0,1,1,5,0" fill="#004b96" stroke-width="2" opacity="0.6"/><path aria-label="date: Apr 23, 2020; currentcases: 2" role="graphics-symbol" aria-roledescription="point" transform="translate(71.01449275362319,90)" d="M5,0A5,5,0,1,1,-5,0A5,5,0,1,1,5,0" fill="#004b96" stroke-width="2" opacity="0.6"/><path aria-label="date: Apr 24, 2020; currentcases: 2" role="graphics-symbol" aria-roledescription="point" transform="translate(81.15942028985508,90)" d="M5,0A5,5,0,1,1,-5,0A5,5,0,1,1,5,0" fill="#004b96" stroke-width="2" opacity="0.6"/><path aria-label="date: Apr 26, 2020; currentcases: 3" role="graphics-symbol" aria-roledescription="point" transform="translate(101.44927536231884,60)" d="M5,0A5,5,0,1,1,-5,0A5,5,0,1,1,5,0" fill="#004b96" stroke-width="2" opacity="0.6"/><path aria-label="date: Apr 28, 2020; currentcases: 4" role="graphics-symbol" aria-roledescription="point" transform="translate(121.73913043478261,29.999999999999993)" d="M5,0A5,5,0,1,1,-5,0A5,5,0,1,1,5,0" fill="#004b96" stroke-width="2" opacity="0.6"/><path aria-label="date: Apr 30, 2020; currentcases: 5" role="graphics-symbol" aria-roledescription="point" transform="translate(142.02898550724638,0)" d="M5,0A5,5,0,1,1,-5,0A5,5,0,1,1,5,0" fill="#004b96" stroke-width="2" opacity="0.6"/><path aria-label="date: May 04, 2020; currentcases: 4" role="graphics-symbol" aria-roledescription="point" transform="translate(182.6086956521739,29.999999999999993)" d="M5,0A5,5,0,1,1,-5,0A5,5,0,1,1,5,0" fill="#004b96" stroke-width="2" opacity="0.6"/><path aria-label="date: May 05, 2020; currentcases: 3" role="graphics-symbol" aria-roledescription="point" transform="translate(192.7536231884058,60)" d="M5,0A5,5,0,1,1,-5,0A5,5,0,1,1,5,0" fill="#004b96" stroke-width="2" opacity="0.6"/><path aria-label="date: May 06, 2020; currentcases: 2" role="graphics-symbol" aria-roledescription="point" transform="translate(202.8985507246377,90)" d="M5,0A5,5,0,1,1,-5,0A5,5,0,1,1,5,0" fill="#004b96" stroke-width="2" opacity="0.6"/><path aria-label="date: May 07, 2020; currentcases: 3" role="graphics-symbol" aria-roledescription="point" transform="translate(213.0434782608696,60)" d="M5,0A5,5,0,1,1,-5,0A5,5,0,1,1,5,0" fill="#004b96" stroke-width="2" opacity="0.6"/><path aria-label="date: May 11, 2020; currentcases: 5" role="graphics-symbol" aria-roledescription="point" transform="translate(253.6231884057971,0)" d="M5,0A5,5,0,1,1,-5,0A5,5,0,1,1,5,0" fill="#004b96" stroke-width="2" opacity="0.6"/><path aria-label="date: May 18, 2020; currentcases: 1" role="graphics-symbol" aria-roledescription="point" transform="translate(324.6376811594203,120)" d="M5,0A5,5,0,1,1,-5,0A5,5,0,1,1,5,0" fill="#004b96" stroke-width="2" opacity="0.6"/><path aria-label="date: May 19, 2020; currentcases: 1" role="graphics-symbol" aria-roledescription="point" transform="translate(334.7826086956522,120)" d="M5,0A5,5,0,1,1,-5,0A5,5,0,1,1,5,0" fill="#004b96" stroke-width="2" opacity="0.6"/><path aria-label="date: May 26, 2020; currentcases: 2" role="graphics-symbol" aria-roledescription="point" transform="translate(405.7971014492754,90)" d="M5,0A5,5,0,1,1,-5,0A5,5,0,1,1,5,0" fill="#004b96" stroke-width="2" opacity="0.6"/><path aria-label="date: May 28, 2020; currentcases: 3" role="graphics-symbol" aria-roledescription="point" transform="translate(426.0869565217392,60)" d="M5,0A5,5,0,1,1,-5,0A5,5,0,1,1,5,0" fill="#004b96" stroke-width="2" opacity="0.6"/><path aria-label="date: Jun 08, 2020; currentcases: 2" role="graphics-symbol" aria-roledescription="point" transform="translate(537.6811594202899,90)" d="M5,0A5,5,0,1,1,-5,0A5,5,0,1,1,5,0" fill="#004b96" stroke-width="2" opacity="0.6"/><path aria-label="date: Jun 09, 2020; currentcases: 2" role="graphics-symbol" aria-roledescription="point" transform="translate(547.8260869565217,90)" d="M5,0A5,5,0,1,1,-5,0A5,5,0,1,1,5,0" fill="#004b96" stroke-width="2" opacity="0.6"/><path aria-label="date: Jun 10, 2020; currentcases: 1" role="graphics-symbol" aria-roledescription="point" transform="translate(557.9710144927536,120)" d="M5,0A5,5,0,1,1,-5,0A5,5,0,1,1,5,0" fill="#004b96" stroke-width="2" opacity="0.6"/><path aria-label="date: Jun 11, 2020; currentcases: 3" role="graphics-symbol" aria-roledescription="point" transform="translate(568.1159420289855,60)" d="M5,0A5,5,0,1,1,-5,0A5,5,0,1,1,5,0" fill="#004b96" stroke-width="2" opacity="0.6"/><path aria-label="date: Jun 15, 2020; currentcases: 2" role="graphics-symbol" aria-roledescription="point" transform="translate(608.695652173913,90)" d="M5,0A5,5,0,1,1,-5,0A5,5,0,1,1,5,0" fill="#004b96" stroke-width="2" opacity="0.6"/><path aria-label="date: Jun 18, 2020; currentcases: 2" role="graphics-symbol" aria-roledescription="point" transform="translate(639.1304347826086,90)" d="M5,0A5,5,0,1,1,-5,0A5,5,0,1,1,5,0" fill="#004b96" stroke-width="2" opacity="0.6"/><path aria-label="date: Jun 19, 2020; currentcases: 3" role="graphics-symbol" aria-roledescription="point" transform="translate(649.2753623188406,60)" d="M5,0A5,5,0,1,1,-5,0A5,5,0,1,1,5,0" fill="#004b96" stroke-width="2" opacity="0.6"/></g></g><path class="foreground" aria-hidden="true" d="" display="none"/></g></g></g></svg>
