<?xml version="1.0" encoding="utf-8"?>
<!DOCTYPE svg PUBLIC "-//W3C//DTD SVG 1.1//EN" "http://www.w3.org/Graphics/SVG/1.1/DTD/svg11.dtd">
<svg xmlns="http://www.w3.org/2000/svg" xmlns:xlink="http://www.w3.org/1999/xlink" version="1.1" class="marks" width="249" height="3486" viewBox="0 0 249 3486"><rect width="249" height="3486" fill="white"/><g fill="none" stroke-miterlimit="10" transform="translate(42,3249)"><g class="mark-group role-frame root" role="graphics-object" aria-roledescription="group mark container"><g transform="translate(0,0)"><path class="background" aria-hidden="true" d="M0.5,0.5h200v200h-200Z" stroke="#ddd"/><g><g class="mark-group role-axis" aria-hidden="true"><g transform="translate(0.5,200.5)"><path class="background" aria-hidden="true" d="M0,0h0v0h0Z" pointer-events="none"/><g><g class="mark-rule role-axis-grid" pointer-events="none"><line transform="translate(0,-200)" x2="0" y2="200" stroke="#ddd" stroke-width="1" opacity="1"/><line transform="translate(40,-200)" x2="0" y2="200" stroke="#ddd" stroke-width="1" opacity="1"/><line transform="translate(80,-200)" x2="0" y2="200" stroke="#ddd" stroke-width="1" opacity="1"/><line transform="translate(120,-200)" x2="0" y2="200" stroke="#ddd" stroke-width="1" opacity="1"/><line transform="translate(160,-200)" x2="0" y2="200" stroke="#ddd" stroke-width="1" opacity="1"/><line transform="translate(200,-200)" x2="0" y2="200" stroke="#ddd" stroke-width="1" opacity="1"/></g></g><path class="foreground" aria-hidden="true" d="" pointer-events="none" display="none"/></g></g><g class="mark-group role-axis" aria-hidden="true"><g transform="translate(0.5,0.5)"><path class="background" aria-hidden="true" d="M0,0h0v0h0Z" pointer-events="none"/><g><g class="mark-rule role-axis-grid" pointer-events="none"><line transform="translate(0,200)" x2="200" y2="0" stroke="#ddd" stroke-width="1" opacity="1"/><line transform="translate(0,150)" x2="200" y2="0" stroke="#ddd" stroke-width="1" opacity="1"/><line transform="translate(0,100)" x2="200" y2="0" stroke="#ddd" stroke-width="1" opacity="1"/><line transform="translate(0,50)" x2="200" y2="0" stroke="#ddd" stroke-width="1" opacity="1"/><line transform="translate(0,0)" x2="200" y2="0" stroke="#ddd" stroke-width="1" opacity="1"/></g></g><path class="foreground" aria-hidden="true" d="" pointer-events="none" display="none"/></g></g><g class="mark-group role-axis" role="graphics-symbol" aria-roledescription="axis" aria-label="X-axis titled 'Parameter for predicted incidences' for a linear scale with values from −0.2 to 0.3"><g transform="translate(0.5,200.5)"><path class="background" aria-hidden="true" d="M0,0h0v0h0Z" pointer-events="none"/><g><g class="mark-rule role-axis-tick" pointer-events="none"><line transform="translate(0,0)" x2="0" y2="5" stroke="#888" stroke-width="1" opacity="1"/><line transform="translate(40,0)" x2="0" y2="5" stroke="#888" stroke-width="1" opacity="1"/><line transform="translate(80,0)" x2="0" y2="5" stroke="#888" stroke-width="1" opacity="1"/><line transform="translate(120,0)" x2="0" y2="5" stroke="#888" stroke-width="1" opacity="1"/><line transform="translate(160,0)" x2="0" y2="5" stroke="#888" stroke-width="1" opacity="1"/><line transform="translate(200,0)" x2="0" y2="5" stroke="#888" stroke-width="1" opacity="1"/></g><g class="mark-text role-axis-label" pointer-events="none"><text text-anchor="start" transform="translate(0,15)" font-family="sans-serif" font-size="10px" fill="#000" opacity="1">−0.2</text><text text-anchor="middle" transform="translate(40,15)" font-family="sans-serif" font-size="10px" fill="#000" opacity="1">−0.1</text><text text-anchor="middle" transform="translate(80,15)" font-family="sans-serif" font-size="10px" fill="#000" opacity="1">0.0</text><text text-anchor="middle" transform="translate(120.00000000000001,15)" font-family="sans-serif" font-size="10px" fill="#000" opacity="1">0.1</text><text text-anchor="middle" transform="translate(160,15)" font-family="sans-serif" font-size="10px" fill="#000" opacity="1">0.2</text><text text-anchor="end" transform="translate(200,15)" font-family="sans-serif" font-size="10px" fill="#000" opacity="1">0.3</text></g><g class="mark-rule role-axis-domain" pointer-events="none"><line transform="translate(0,0)" x2="200" y2="0" stroke="#888" stroke-width="1" opacity="1"/></g><g class="mark-text role-axis-title" pointer-events="none"><text text-anchor="middle" transform="translate(100,30)" font-family="sans-serif" font-size="11px" font-weight="bold" fill="#000" opacity="1">Parameter for predicted incidences</text></g></g><path class="foreground" aria-hidden="true" d="" pointer-events="none" display="none"/></g></g><g class="mark-group role-axis" role="graphics-symbol" aria-roledescription="axis" aria-label="Y-axis titled 'Loss' for a linear scale with values from 0.2 to 1.0"><g transform="translate(0.5,0.5)"><path class="background" aria-hidden="true" d="M0,0h0v0h0Z" pointer-events="none"/><g><g class="mark-rule role-axis-tick" pointer-events="none"><line transform="translate(0,200)" x2="-5" y2="0" stroke="#888" stroke-width="1" opacity="1"/><line transform="translate(0,150)" x2="-5" y2="0" stroke="#888" stroke-width="1" opacity="1"/><line transform="translate(0,100)" x2="-5" y2="0" stroke="#888" stroke-width="1" opacity="1"/><line transform="translate(0,50)" x2="-5" y2="0" stroke="#888" stroke-width="1" opacity="1"/><line transform="translate(0,0)" x2="-5" y2="0" stroke="#888" stroke-width="1" opacity="1"/></g><g class="mark-text role-axis-label" pointer-events="none"><text text-anchor="end" transform="translate(-7,203)" font-family="sans-serif" font-size="10px" fill="#000" opacity="1">0.2</text><text text-anchor="end" transform="translate(-7,153)" font-family="sans-serif" font-size="10px" fill="#000" opacity="1">0.4</text><text text-anchor="end" transform="translate(-7,103)" font-family="sans-serif" font-size="10px" fill="#000" opacity="1">0.6</text><text text-anchor="end" transform="translate(-7,52.99999999999998)" font-family="sans-serif" font-size="10px" fill="#000" opacity="1">0.8</text><text text-anchor="end" transform="translate(-7,3)" font-family="sans-serif" font-size="10px" fill="#000" opacity="1">1.0</text></g><g class="mark-rule role-axis-domain" pointer-events="none"><line transform="translate(0,200)" x2="0" y2="-200" stroke="#888" stroke-width="1" opacity="1"/></g><g class="mark-text role-axis-title" pointer-events="none"><text text-anchor="middle" transform="translate(-26,100) rotate(-90) translate(0,-2)" font-family="sans-serif" font-size="11px" font-weight="bold" fill="#000" opacity="1">Loss</text></g></g><path class="foreground" aria-hidden="true" d="" pointer-events="none" display="none"/></g></g><g class="mark-group role-scope pathgroup" role="graphics-object" aria-roledescription="group mark container"><g transform="translate(0,0)"><path class="background" aria-hidden="true" d="M0,0h200v200h-200Z"/><g><g class="mark-line role-mark marks" role="graphics-object" aria-roledescription="line mark container"><path aria-label="Parameter for predicted incidences: −0.2; Loss: 13.9651137751; model: Increment model" role="graphics-symbol" aria-roledescription="line mark" d="M0,-3241.278443766398L4.0000000000000036,-3065.3227952393195L8.000000000000007,-2894.0201716730107L12,-2727.3705730674706L16.000000000000004,-2565.373999422699L20.000000000000007,-2408.030450738702L24,-2255.339927015475L28.000000000000004,-2107.302428253016L32.00000000000001,-1963.917954451329L36.00000000000001,-1825.1865056104127L40,-1691.1080817302648L44.00000000000001,-1561.6826828108883L48.00000000000001,-1436.9103088522832L52,-1316.7909598544484L56.00000000000001,-1201.3246358173826L60.00000000000001,-1090.5113367410888L64,-984.3510626255639L68,-882.8438134708105L72.00000000000001,-785.9895892768267L76,-693.7883900436144L80,-606.2402157711706L84.00000000000001,-523.3450664594985L88,-445.1029421085967L92,-371.5138427184657L96.00000000000001,-302.5777682891042L100,-238.29471882051357L104,-178.66469431269354L108,-123.68769476564343L112.00000000000001,-73.36372017936404L116.00000000000001,-27.692770553854995L120.00000000000001,13.325154110883863L124,49.69005381485203L128,81.40192855805013L132,108.46077834047763L136,130.86660316213485L140,148.61940302302153L144,161.719177923138L148,170.165927862484L152,173.95965284105955L156,173.10035285886482L160,167.58802791589957L164,157.42267801216403L168.00000000000003,142.60430314765807L172.00000000000003,123.13290332238162L176,99.00847853633496L180,70.23102878951771L184,36.80055408193017L188,-1.2829455864276529L192.00000000000003,-44.019470215556076L196,-91.40901980545478L200,-143.45159435612373" stroke="#4c78a8" stroke-width="2"/></g></g><path class="foreground" aria-hidden="true" d="" display="none"/></g><g transform="translate(0,0)"><path class="background" aria-hidden="true" d="M0,0h200v200h-200Z"/><g><g class="mark-line role-mark marks" role="graphics-object" aria-roledescription="line mark container"><path aria-label="Parameter for predicted incidences: −0.2; Loss: 2.20046396839; model: Linear regression" role="graphics-symbol" aria-roledescription="line mark" d="M0,-300.11599209826824L4.0000000000000036,-256.5887342799277L8.000000000000007,-215.24825025891437L12,-176.09454003522848L16.000000000000004,-139.12760360886955L20.000000000000007,-104.34744097983781L24,-71.75405214813347L28.000000000000004,-41.34743711375628L32.00000000000001,-13.127595876706133L36.00000000000001,12.905471563016736L40,36.75176520541235L44.00000000000001,58.411285050480764L48.00000000000001,77.88403109822193L52,95.17000334863594L56.00000000000001,110.26920180172282L60.00000000000001,123.18162645748237L64,133.90727731591477L68,142.44615437701995L72.00000000000001,148.7982576407979L76,152.96358710724869L80,154.9421427763723L84.00000000000001,154.73392464816865L88,152.3389327226378L92,147.75716699977974L96.00000000000001,140.98862747959453L100,132.033314162082L104,120.8912270472424L108,107.56236613507548L112.00000000000001,92.04673142558147L116.00000000000001,74.34432291876014L120.00000000000001,54.45514061461165L124,32.379184513135975L128,8.116454614333012L132,-18.33304908179705L136,-46.969326575254385L140,-77.79237786603885L144,-110.80220295415062L148,-145.99880183958956L152,-183.38217452235557L156,-222.95232100244897L160,-264.70924127986973L164,-308.65293535461717L168.00000000000003,-354.78340322669214L172.00000000000003,-403.10064489609437L176,-453.6046603628236L180,-506.29544962688027L184,-561.1730126882641L188,-618.2373495469751L192.00000000000003,-677.4884602030135L196,-738.9263446563784L200,-802.5510029070714" stroke="#f58518" stroke-width="2"/></g></g><path class="foreground" aria-hidden="true" d="" display="none"/></g></g></g><path class="foreground" aria-hidden="true" d="" display="none"/></g></g></g></svg>
