<?xml version="1.0" encoding="utf-8"?>
<!DOCTYPE svg PUBLIC "-//W3C//DTD SVG 1.1//EN" "http://www.w3.org/Graphics/SVG/1.1/DTD/svg11.dtd">
<svg xmlns="http://www.w3.org/2000/svg" xmlns:xlink="http://www.w3.org/1999/xlink" version="1.1" class="marks" width="249" height="3212" viewBox="0 0 249 3212"><rect width="249" height="3212" fill="white"/><g fill="none" stroke-miterlimit="10" transform="translate(42,2975)"><g class="mark-group role-frame root" role="graphics-object" aria-roledescription="group mark container"><g transform="translate(0,0)"><path class="background" aria-hidden="true" d="M0.5,0.5h200v200h-200Z" stroke="#ddd"/><g><g class="mark-group role-axis" aria-hidden="true"><g transform="translate(0.5,200.5)"><path class="background" aria-hidden="true" d="M0,0h0v0h0Z" pointer-events="none"/><g><g class="mark-rule role-axis-grid" pointer-events="none"><line transform="translate(0,-200)" x2="0" y2="200" stroke="#ddd" stroke-width="1" opacity="1"/><line transform="translate(44,-200)" x2="0" y2="200" stroke="#ddd" stroke-width="1" opacity="1"/><line transform="translate(89,-200)" x2="0" y2="200" stroke="#ddd" stroke-width="1" opacity="1"/><line transform="translate(133,-200)" x2="0" y2="200" stroke="#ddd" stroke-width="1" opacity="1"/><line transform="translate(178,-200)" x2="0" y2="200" stroke="#ddd" stroke-width="1" opacity="1"/></g></g><path class="foreground" aria-hidden="true" d="" pointer-events="none" display="none"/></g></g><g class="mark-group role-axis" aria-hidden="true"><g transform="translate(0.5,0.5)"><path class="background" aria-hidden="true" d="M0,0h0v0h0Z" pointer-events="none"/><g><g class="mark-rule role-axis-grid" pointer-events="none"><line transform="translate(0,200)" x2="200" y2="0" stroke="#ddd" stroke-width="1" opacity="1"/><line transform="translate(0,150)" x2="200" y2="0" stroke="#ddd" stroke-width="1" opacity="1"/><line transform="translate(0,100)" x2="200" y2="0" stroke="#ddd" stroke-width="1" opacity="1"/><line transform="translate(0,50)" x2="200" y2="0" stroke="#ddd" stroke-width="1" opacity="1"/><line transform="translate(0,0)" x2="200" y2="0" stroke="#ddd" stroke-width="1" opacity="1"/></g></g><path class="foreground" aria-hidden="true" d="" pointer-events="none" display="none"/></g></g><g class="mark-group role-axis" role="graphics-symbol" aria-roledescription="axis" aria-label="X-axis titled 'Parameter for prevalent cases' for a linear scale with values from −0.4 to 0.1"><g transform="translate(0.5,200.5)"><path class="background" aria-hidden="true" d="M0,0h0v0h0Z" pointer-events="none"/><g><g class="mark-rule role-axis-tick" pointer-events="none"><line transform="translate(0,0)" x2="0" y2="5" stroke="#888" stroke-width="1" opacity="1"/><line transform="translate(44,0)" x2="0" y2="5" stroke="#888" stroke-width="1" opacity="1"/><line transform="translate(89,0)" x2="0" y2="5" stroke="#888" stroke-width="1" opacity="1"/><line transform="translate(133,0)" x2="0" y2="5" stroke="#888" stroke-width="1" opacity="1"/><line transform="translate(178,0)" x2="0" y2="5" stroke="#888" stroke-width="1" opacity="1"/></g><g class="mark-text role-axis-label" pointer-events="none"><text text-anchor="start" transform="translate(0,15)" font-family="sans-serif" font-size="10px" fill="#000" opacity="1">−0.4</text><text text-anchor="middle" transform="translate(44.44444444444446,15)" font-family="sans-serif" font-size="10px" fill="#000" opacity="1">−0.3</text><text text-anchor="middle" transform="translate(88.8888888888889,15)" font-family="sans-serif" font-size="10px" fill="#000" opacity="1">−0.2</text><text text-anchor="middle" transform="translate(133.33333333333334,15)" font-family="sans-serif" font-size="10px" fill="#000" opacity="1">−0.1</text><text text-anchor="middle" transform="translate(177.7777777777778,15)" font-family="sans-serif" font-size="10px" fill="#000" opacity="1">0.0</text></g><g class="mark-rule role-axis-domain" pointer-events="none"><line transform="translate(0,0)" x2="200" y2="0" stroke="#888" stroke-width="1" opacity="1"/></g><g class="mark-text role-axis-title" pointer-events="none"><text text-anchor="middle" transform="translate(100,30)" font-family="sans-serif" font-size="11px" font-weight="bold" fill="#000" opacity="1">Parameter for prevalent cases</text></g></g><path class="foreground" aria-hidden="true" d="" pointer-events="none" display="none"/></g></g><g class="mark-group role-axis" role="graphics-symbol" aria-roledescription="axis" aria-label="Y-axis titled 'Loss' for a linear scale with values from 0.2 to 1.0"><g transform="translate(0.5,0.5)"><path class="background" aria-hidden="true" d="M0,0h0v0h0Z" pointer-events="none"/><g><g class="mark-rule role-axis-tick" pointer-events="none"><line transform="translate(0,200)" x2="-5" y2="0" stroke="#888" stroke-width="1" opacity="1"/><line transform="translate(0,150)" x2="-5" y2="0" stroke="#888" stroke-width="1" opacity="1"/><line transform="translate(0,100)" x2="-5" y2="0" stroke="#888" stroke-width="1" opacity="1"/><line transform="translate(0,50)" x2="-5" y2="0" stroke="#888" stroke-width="1" opacity="1"/><line transform="translate(0,0)" x2="-5" y2="0" stroke="#888" stroke-width="1" opacity="1"/></g><g class="mark-text role-axis-label" pointer-events="none"><text text-anchor="end" transform="translate(-7,203)" font-family="sans-serif" font-size="10px" fill="#000" opacity="1">0.2</text><text text-anchor="end" transform="translate(-7,153)" font-family="sans-serif" font-size="10px" fill="#000" opacity="1">0.4</text><text text-anchor="end" transform="translate(-7,103)" font-family="sans-serif" font-size="10px" fill="#000" opacity="1">0.6</text><text text-anchor="end" transform="translate(-7,52.99999999999998)" font-family="sans-serif" font-size="10px" fill="#000" opacity="1">0.8</text><text text-anchor="end" transform="translate(-7,3)" font-family="sans-serif" font-size="10px" fill="#000" opacity="1">1.0</text></g><g class="mark-rule role-axis-domain" pointer-events="none"><line transform="translate(0,200)" x2="0" y2="-200" stroke="#888" stroke-width="1" opacity="1"/></g><g class="mark-text role-axis-title" pointer-events="none"><text text-anchor="middle" transform="translate(-26,100) rotate(-90) translate(0,-2)" font-family="sans-serif" font-size="11px" font-weight="bold" fill="#000" opacity="1">Loss</text></g></g><path class="foreground" aria-hidden="true" d="" pointer-events="none" display="none"/></g></g><g class="mark-group role-scope pathgroup" role="graphics-object" aria-roledescription="group mark container"><g transform="translate(0,0)"><path class="background" aria-hidden="true" d="M0,0h200v200h-200Z"/><g><g class="mark-line role-mark marks" role="graphics-object" aria-roledescription="line mark container"><path aria-label="Parameter for prevalent cases: −0.4; Loss: 2.4850000685; model: Increment model" role="graphics-symbol" aria-roledescription="line mark" d="M0,-371.2500171238822L4.444444444444448,-322.9472633886259L8.888888888888896,-276.1257043359033L13.333333333333345,-230.87403866341614L17.777777777777793,-187.28776947378512L22.22222222222224,-145.46972409242852L26.666666666666668,-105.53060904262819L31.11111111111111,-67.58960214196237L35.555555555555564,-31.774983769465813L40.00000000000001,1.7751905595095208L44.44444444444446,32.91237408358505L48.88888888888891,61.47676683094654L53.333333333333336,87.29650538507343L57.777777777777786,110.18680186751415L62.22222222222222,129.94902952400764L66.66666666666667,146.3697521969579L71.11111111111113,159.21969486122046L75.55555555555556,168.2526522913515L80,173.2043328168408L84.44444444444446,173.79113400738393L88.8888888888889,169.70884701288875L93.33333333333333,160.63128616264132L97.77777777777779,146.20884030482603L102.22222222222221,126.06694224137284L106.66666666666667,99.80445248385435L111.11111111111111,66.99195342384382L115.55555555555557,27.169949875727674L120,-20.153028188586262L124.44444444444444,-75.50242503534297L128.88888888888889,-139.43976516222213L133.33333333333334,-212.5648705046179L137.7777777777778,-295.5181936217858L142.22222222222223,-388.9832717844956L146.66666666666669,-493.6893070439722L151.11111111111111,-610.4138775234308L155.55555555555557,-739.9857853384749L160,-883.2880467210279L164.44444444444443,-1041.2610300934039L168.88888888888889,-1214.9057480145823L173.33333333333334,-1405.2873090997437L177.7777777777778,-1613.5385361968185L182.22222222222223,-1840.8637572900143L186.66666666666666,-2088.5427757903044L191.11111111111111,-2357.935027066531L195.55555555555554,-2650.483928268168L200,-2967.721428692069" stroke="#4c78a8" stroke-width="2"/></g></g><path class="foreground" aria-hidden="true" d="" display="none"/></g><g transform="translate(0,0)"><path class="background" aria-hidden="true" d="M0,0h200v200h-200Z"/><g><g class="mark-line role-mark marks" role="graphics-object" aria-roledescription="line mark container"><path aria-label="Parameter for prevalent cases: −0.4; Loss: 7.14304948609; model: Linear regression" role="graphics-symbol" aria-roledescription="line mark" d="M0,-1535.7623715219756L4.444444444444448,-1449.8664697414604L8.888888888888896,-1366.209538549181L13.333333333333345,-1284.7915779451362L17.777777777777793,-1205.6125879293277L22.22222222222224,-1128.6725685017539L26.666666666666668,-1053.971519662416L31.11111111111111,-981.5094414113127L35.555555555555564,-911.2863337484448L40.00000000000001,-843.3021966738124L44.44444444444446,-777.5570301874149L48.88888888888891,-714.0508342892533L53.333333333333336,-652.7836089793267L57.777777777777786,-593.7553542576354L62.22222222222222,-536.9660701241793L66.66666666666667,-482.4157565789586L71.11111111111113,-430.1044136219731L75.55555555555556,-380.03204125322316L80,-332.1986394727081L84.44444444444446,-286.6042082804286L88.8888888888889,-243.24874767638437L93.33333333333333,-202.13225766057548L97.77777777777779,-163.25473823300166L102.22222222222221,-126.61618939366348L106.66666666666667,-92.21661114256037L111.11111111111111,-60.056003479692464L115.55555555555557,-30.13436640506L120,-2.4516999186627864L124.44444444444444,22.991995979499123L128.88888888888889,46.19672128942569L133.33333333333334,67.16247601111702L137.7777777777778,85.88926014457307L142.22222222222223,102.37707368979375L146.66666666666669,116.62591664677919L151.11111111111111,128.63578901552933L155.55555555555557,138.4066907960442L160,145.93862198832372L164.44444444444443,151.23158259236794L168.88888888888889,154.28557260817695L173.33333333333334,155.1005920357506L177.7777777777778,153.67664087508896L182.22222222222223,150.013719126192L186.66666666666666,144.11182678905985L191.11111111111111,135.9709638636923L195.55555555555554,125.59113035008953L200,112.97232624825142" stroke="#f58518" stroke-width="2"/></g></g><path class="foreground" aria-hidden="true" d="" display="none"/></g></g></g><path class="foreground" aria-hidden="true" d="" display="none"/></g></g></g></svg>
