<?xml version="1.0" encoding="utf-8"?>
<!DOCTYPE svg PUBLIC "-//W3C//DTD SVG 1.1//EN" "http://www.w3.org/Graphics/SVG/1.1/DTD/svg11.dtd">
<svg xmlns="http://www.w3.org/2000/svg" xmlns:xlink="http://www.w3.org/1999/xlink" version="1.1" class="marks" width="635" height="675" viewBox="0 0 635 675"><rect width="635" height="675" fill="white"/><g fill="none" stroke-miterlimit="10" transform="translate(60,27)"><g class="mark-group role-frame root" role="graphics-object" aria-roledescription="group mark container"><g transform="translate(0,0)"><path class="background" aria-hidden="true" d="M0.5,0.5h400v500h-400Z" stroke="#ddd"/><g><g class="mark-group role-axis" aria-hidden="true"><g transform="translate(0.5,0.5)"><path class="background" aria-hidden="true" d="M0,0h0v0h0Z" pointer-events="none"/><g><g class="mark-rule role-axis-grid" pointer-events="none"><line transform="translate(0,500)" x2="400" y2="0" stroke="#ddd" stroke-width="1" opacity="1"/><line transform="translate(0,455)" x2="400" y2="0" stroke="#ddd" stroke-width="1" opacity="1"/><line transform="translate(0,409)" x2="400" y2="0" stroke="#ddd" stroke-width="1" opacity="1"/><line transform="translate(0,364)" x2="400" y2="0" stroke="#ddd" stroke-width="1" opacity="1"/><line transform="translate(0,318)" x2="400" y2="0" stroke="#ddd" stroke-width="1" opacity="1"/><line transform="translate(0,273)" x2="400" y2="0" stroke="#ddd" stroke-width="1" opacity="1"/><line transform="translate(0,227)" x2="400" y2="0" stroke="#ddd" stroke-width="1" opacity="1"/><line transform="translate(0,182)" x2="400" y2="0" stroke="#ddd" stroke-width="1" opacity="1"/><line transform="translate(0,136)" x2="400" y2="0" stroke="#ddd" stroke-width="1" opacity="1"/><line transform="translate(0,91)" x2="400" y2="0" stroke="#ddd" stroke-width="1" opacity="1"/><line transform="translate(0,45)" x2="400" y2="0" stroke="#ddd" stroke-width="1" opacity="1"/><line transform="translate(0,0)" x2="400" y2="0" stroke="#ddd" stroke-width="1" opacity="1"/></g></g><path class="foreground" aria-hidden="true" d="" pointer-events="none" display="none"/></g></g><g class="mark-group role-axis" role="graphics-symbol" aria-roledescription="axis" aria-label="X-axis for a discrete scale with 4 values: sse_diffs_to_linregmodel, sse_diffs_to_meanmodel, sse_diffs_to_modmeanmodel, sse_diffs_to_zeromodel"><g transform="translate(0.5,500.5)"><path class="background" aria-hidden="true" d="M0,0h0v0h0Z" pointer-events="none"/><g><g class="mark-rule role-axis-tick" pointer-events="none"><line transform="translate(50,0)" x2="0" y2="5" stroke="#888" stroke-width="1" opacity="1"/><line transform="translate(150,0)" x2="0" y2="5" stroke="#888" stroke-width="1" opacity="1"/><line transform="translate(250,0)" x2="0" y2="5" stroke="#888" stroke-width="1" opacity="1"/><line transform="translate(350,0)" x2="0" y2="5" stroke="#888" stroke-width="1" opacity="1"/></g><g class="mark-text role-axis-label" pointer-events="none"><text text-anchor="end" transform="translate(49.5,7) rotate(270) translate(0,3)" font-family="sans-serif" font-size="10px" fill="#000" opacity="1">sse_diffs_to_linregmodel</text><text text-anchor="end" transform="translate(149.5,7) rotate(270) translate(0,3)" font-family="sans-serif" font-size="10px" fill="#000" opacity="1">sse_diffs_to_meanmodel</text><text text-anchor="end" transform="translate(249.5,7) rotate(270) translate(0,3)" font-family="sans-serif" font-size="10px" fill="#000" opacity="1">sse_diffs_to_modmeanmodel</text><text text-anchor="end" transform="translate(349.5,7) rotate(270) translate(0,3)" font-family="sans-serif" font-size="10px" fill="#000" opacity="1">sse_diffs_to_zeromodel</text></g><g class="mark-rule role-axis-domain" pointer-events="none"><line transform="translate(0,0)" x2="400" y2="0" stroke="#888" stroke-width="1" opacity="1"/></g></g><path class="foreground" aria-hidden="true" d="" pointer-events="none" display="none"/></g></g><g class="mark-group role-axis" role="graphics-symbol" aria-roledescription="axis" aria-label="Y-axis titled 'prediction error' for a linear scale with values from −1,800 to 400"><g transform="translate(0.5,0.5)"><path class="background" aria-hidden="true" d="M0,0h0v0h0Z" pointer-events="none"/><g><g class="mark-rule role-axis-tick" pointer-events="none"><line transform="translate(0,500)" x2="-5" y2="0" stroke="#888" stroke-width="1" opacity="1"/><line transform="translate(0,455)" x2="-5" y2="0" stroke="#888" stroke-width="1" opacity="1"/><line transform="translate(0,409)" x2="-5" y2="0" stroke="#888" stroke-width="1" opacity="1"/><line transform="translate(0,364)" x2="-5" y2="0" stroke="#888" stroke-width="1" opacity="1"/><line transform="translate(0,318)" x2="-5" y2="0" stroke="#888" stroke-width="1" opacity="1"/><line transform="translate(0,273)" x2="-5" y2="0" stroke="#888" stroke-width="1" opacity="1"/><line transform="translate(0,227)" x2="-5" y2="0" stroke="#888" stroke-width="1" opacity="1"/><line transform="translate(0,182)" x2="-5" y2="0" stroke="#888" stroke-width="1" opacity="1"/><line transform="translate(0,136)" x2="-5" y2="0" stroke="#888" stroke-width="1" opacity="1"/><line transform="translate(0,91)" x2="-5" y2="0" stroke="#888" stroke-width="1" opacity="1"/><line transform="translate(0,45)" x2="-5" y2="0" stroke="#888" stroke-width="1" opacity="1"/><line transform="translate(0,0)" x2="-5" y2="0" stroke="#888" stroke-width="1" opacity="1"/></g><g class="mark-text role-axis-label" pointer-events="none"><text text-anchor="end" transform="translate(-7,503)" font-family="sans-serif" font-size="10px" fill="#000" opacity="1">−1,800</text><text text-anchor="end" transform="translate(-7,457.5454545454545)" font-family="sans-serif" font-size="10px" fill="#000" opacity="1">−1,600</text><text text-anchor="end" transform="translate(-7,412.09090909090907)" font-family="sans-serif" font-size="10px" fill="#000" opacity="1">−1,400</text><text text-anchor="end" transform="translate(-7,366.6363636363636)" font-family="sans-serif" font-size="10px" fill="#000" opacity="1">−1,200</text><text text-anchor="end" transform="translate(-7,321.1818181818182)" font-family="sans-serif" font-size="10px" fill="#000" opacity="1">−1,000</text><text text-anchor="end" transform="translate(-7,275.7272727272727)" font-family="sans-serif" font-size="10px" fill="#000" opacity="1">−800</text><text text-anchor="end" transform="translate(-7,230.27272727272728)" font-family="sans-serif" font-size="10px" fill="#000" opacity="1">−600</text><text text-anchor="end" transform="translate(-7,184.8181818181818)" font-family="sans-serif" font-size="10px" fill="#000" opacity="1">−400</text><text text-anchor="end" transform="translate(-7,139.36363636363635)" font-family="sans-serif" font-size="10px" fill="#000" opacity="1">−200</text><text text-anchor="end" transform="translate(-7,93.90909090909088)" font-family="sans-serif" font-size="10px" fill="#000" opacity="1">0</text><text text-anchor="end" transform="translate(-7,48.45454545454547)" font-family="sans-serif" font-size="10px" fill="#000" opacity="1">200</text><text text-anchor="end" transform="translate(-7,3)" font-family="sans-serif" font-size="10px" fill="#000" opacity="1">400</text></g><g class="mark-rule role-axis-domain" pointer-events="none"><line transform="translate(0,500)" x2="0" y2="-500" stroke="#888" stroke-width="1" opacity="1"/></g><g class="mark-text role-axis-title" pointer-events="none"><text text-anchor="middle" transform="translate(-44,250) rotate(-90) translate(0,-2)" font-family="sans-serif" font-size="11px" font-weight="bold" fill="#000" opacity="1">prediction error</text></g></g><path class="foreground" aria-hidden="true" d="" pointer-events="none" display="none"/></g></g><g class="mark-symbol role-mark layer_0_layer_0_marks" role="graphics-object" aria-roledescription="symbol mark container"><path aria-label="prediction error: −492.428681525; model: sse_diffs_to_meanmodel" role="graphics-symbol" aria-roledescription="point" transform="translate(150,202.82470034654963)" d="M2.7386127875258306,0A2.7386127875258306,2.7386127875258306,0,1,1,-2.7386127875258306,0A2.7386127875258306,2.7386127875258306,0,1,1,2.7386127875258306,0" stroke="#f58518" stroke-width="2" opacity="0.7"/><path aria-label="prediction error: −1746.57814416; model: sse_diffs_to_meanmodel" role="graphics-symbol" aria-roledescription="point" transform="translate(150,487.85866912831267)" d="M2.7386127875258306,0A2.7386127875258306,2.7386127875258306,0,1,1,-2.7386127875258306,0A2.7386127875258306,2.7386127875258306,0,1,1,2.7386127875258306,0" stroke="#f58518" stroke-width="2" opacity="0.7"/><path aria-label="prediction error: −1577.14935277; model: sse_diffs_to_meanmodel" role="graphics-symbol" aria-roledescription="point" transform="translate(150,449.3521256304123)" d="M2.7386127875258306,0A2.7386127875258306,2.7386127875258306,0,1,1,-2.7386127875258306,0A2.7386127875258306,2.7386127875258306,0,1,1,2.7386127875258306,0" stroke="#f58518" stroke-width="2" opacity="0.7"/><path aria-label="prediction error: −501.373585106; model: sse_diffs_to_modmeanmodel" role="graphics-symbol" aria-roledescription="point" transform="translate(250,204.85763297865583)" d="M2.7386127875258306,0A2.7386127875258306,2.7386127875258306,0,1,1,-2.7386127875258306,0A2.7386127875258306,2.7386127875258306,0,1,1,2.7386127875258306,0" stroke="#e45756" stroke-width="2" opacity="0.7"/><path aria-label="prediction error: −1750.22920018; model: sse_diffs_to_modmeanmodel" role="graphics-symbol" aria-roledescription="point" transform="translate(250,488.6884545861972)" d="M2.7386127875258306,0A2.7386127875258306,2.7386127875258306,0,1,1,-2.7386127875258306,0A2.7386127875258306,2.7386127875258306,0,1,1,2.7386127875258306,0" stroke="#e45756" stroke-width="2" opacity="0.7"/><path aria-label="prediction error: −1579.79765397; model: sse_diffs_to_modmeanmodel" role="graphics-symbol" aria-roledescription="point" transform="translate(250,449.95401226535677)" d="M2.7386127875258306,0A2.7386127875258306,2.7386127875258306,0,1,1,-2.7386127875258306,0A2.7386127875258306,2.7386127875258306,0,1,1,2.7386127875258306,0" stroke="#e45756" stroke-width="2" opacity="0.7"/><path aria-label="prediction error: −527.280839468; model: sse_diffs_to_zeromodel" role="graphics-symbol" aria-roledescription="point" transform="translate(350,210.7456453336103)" d="M2.7386127875258306,0A2.7386127875258306,2.7386127875258306,0,1,1,-2.7386127875258306,0A2.7386127875258306,2.7386127875258306,0,1,1,2.7386127875258306,0" stroke="#72b7b2" stroke-width="2" opacity="0.7"/><path aria-label="prediction error: −1749.16400275; model: sse_diffs_to_zeromodel" role="graphics-symbol" aria-roledescription="point" transform="translate(350,488.4463642614623)" d="M2.7386127875258306,0A2.7386127875258306,2.7386127875258306,0,1,1,-2.7386127875258306,0A2.7386127875258306,2.7386127875258306,0,1,1,2.7386127875258306,0" stroke="#72b7b2" stroke-width="2" opacity="0.7"/><path aria-label="prediction error: −33.6080580808; model: sse_diffs_to_zeromodel" role="graphics-symbol" aria-roledescription="point" transform="translate(350,98.54728592744821)" d="M2.7386127875258306,0A2.7386127875258306,2.7386127875258306,0,1,1,-2.7386127875258306,0A2.7386127875258306,2.7386127875258306,0,1,1,2.7386127875258306,0" stroke="#72b7b2" stroke-width="2" opacity="0.7"/><path aria-label="prediction error: −1582.77745195; model: sse_diffs_to_zeromodel" role="graphics-symbol" aria-roledescription="point" transform="translate(350,450.6312390789472)" d="M2.7386127875258306,0A2.7386127875258306,2.7386127875258306,0,1,1,-2.7386127875258306,0A2.7386127875258306,2.7386127875258306,0,1,1,2.7386127875258306,0" stroke="#72b7b2" stroke-width="2" opacity="0.7"/><path aria-label="prediction error: −1633.46910531; model: sse_diffs_to_linregmodel" role="graphics-symbol" aria-roledescription="point" transform="translate(50,462.15206938770814)" d="M2.7386127875258306,0A2.7386127875258306,2.7386127875258306,0,1,1,-2.7386127875258306,0A2.7386127875258306,2.7386127875258306,0,1,1,2.7386127875258306,0" stroke="#4c78a8" stroke-width="2" opacity="0.7"/><path aria-label="prediction error: −1481.11428779; model: sse_diffs_to_linregmodel" role="graphics-symbol" aria-roledescription="point" transform="translate(50,427.52597449686414)" d="M2.7386127875258306,0A2.7386127875258306,2.7386127875258306,0,1,1,-2.7386127875258306,0A2.7386127875258306,2.7386127875258306,0,1,1,2.7386127875258306,0" stroke="#4c78a8" stroke-width="2" opacity="0.7"/></g><g class="mark-rule role-mark layer_0_layer_1_layer_0_marks" aria-hidden="true"><line transform="translate(150,96.31191569621022)" x2="0" y2="-5.5754403866557425" stroke="black"/><line transform="translate(250,97.27798131103616)" x2="0" y2="-5.653075399653815" stroke="black"/><line transform="translate(350,95.93654996713646)" x2="0" y2="-3.7782865677815636" stroke="black"/><line transform="translate(50,113.50331860138336)" x2="0" y2="-45.516201911100566" stroke="black"/></g><g class="mark-rule role-mark layer_0_layer_1_layer_1_marks" aria-hidden="true"><line transform="translate(150,86.50026366075242)" x2="0" y2="-4.143088967046523" stroke="black"/><line transform="translate(250,87.74141273178965)" x2="0" y2="-4.049843213945977" stroke="black"/><line transform="translate(350,88.13382320807983)" x2="0" y2="-5.5545932509963905" stroke="black"/><line transform="translate(50,33.6551366126725)" x2="0" y2="-27.279012293080555" stroke="black"/></g><g class="mark-rect role-mark layer_1_layer_0_marks" role="graphics-object" aria-roledescription="rect mark container"><path aria-label="prediction error: 0.75950863796; upper_box_prediction_error: 19.3988398927; model: sse_diffs_to_meanmodel; Max of prediction error: 37.6284313477; Q3 of prediction error: 19.3988398927; Median of prediction error: 11.5904375297; Q1 of prediction error: 0.75950863796; Min of prediction error: −1746.57814416" role="graphics-symbol" aria-roledescription="box" d="M125,86.50026366075242h50v4.236211648802055h-50Z" fill="#f58518"/><path aria-label="prediction error: −3.14958601008; upper_box_prediction_error: 13.9377839801; model: sse_diffs_to_modmeanmodel; Max of prediction error: 31.7570941215; Q3 of prediction error: 13.9377839801; Median of prediction error: 6.7414726833; Q1 of prediction error: −3.14958601008; Min of prediction error: −1750.22920018" role="graphics-symbol" aria-roledescription="box" d="M225,87.74141273178965h50v3.8834931795926906h-50Z" fill="#e45756"/><path aria-label="prediction error: −5.49635895716; upper_box_prediction_error: 12.2111778844; model: sse_diffs_to_zeromodel; Max of prediction error: 36.6513881888; Q3 of prediction error: 12.2111778844; Median of prediction error: 3.41872035803; Q1 of prediction error: −5.49635895716; Min of prediction error: −1749.16400275" role="graphics-symbol" aria-roledescription="box" d="M325,88.13382320807983h50v4.024440191275062h-50Z" fill="#72b7b2"/><path aria-label="prediction error: 100.856686563; upper_box_prediction_error: 251.917398904; model: sse_diffs_to_linregmodel; Max of prediction error: 371.945052994; Q3 of prediction error: 251.917398904; Median of prediction error: 152.108043718; Q1 of prediction error: 100.856686563; Min of prediction error: −1633.46910531" role="graphics-symbol" aria-roledescription="box" d="M25,33.6551366126725h50v34.33198007761029h-50Z" fill="#4c78a8"/></g><g class="mark-rect role-mark layer_1_layer_1_marks" aria-hidden="true"><path d="M125,87.77490056142211h50v1h-50Z" fill="white" opacity="0.7"/><path d="M225,88.87693802652336h50v1h-50Z" fill="white" opacity="0.7"/><path d="M325,89.63210900953966h50v1h-50Z" fill="white" opacity="0.7"/><path d="M25,55.839080973169416h50v1h-50Z" fill="white" opacity="0.7"/></g><g class="mark-group role-legend" role="graphics-symbol" aria-roledescription="legend" aria-label="Symbol legend titled 'model' for fill color and stroke color with 4 values: sse_diffs_to_linregmodel, sse_diffs_to_meanmodel, sse_diffs_to_modmeanmodel, sse_diffs_to_zeromodel"><g transform="translate(418,0)"><path class="background" aria-hidden="true" d="M0,0h152v77h-152Z" pointer-events="none"/><g><g class="mark-group role-legend-entry"><g transform="translate(0,16)"><path class="background" aria-hidden="true" d="M0,0h0v0h0Z" pointer-events="none"/><g><g class="mark-group role-scope" role="graphics-object" aria-roledescription="group mark container"><g transform="translate(0,0)"><path class="background" aria-hidden="true" d="M0,0h152v12.5h-152Z" pointer-events="none" opacity="1"/><g><g class="mark-symbol role-legend-symbol" pointer-events="none"><path transform="translate(6,6)" d="M5,0A5,5,0,1,1,-5,0A5,5,0,1,1,5,0" fill="#4c78a8" stroke="#4c78a8" stroke-width="1.5" opacity="0.7"/></g><g class="mark-text role-legend-label" pointer-events="none"><text text-anchor="start" transform="translate(16,9)" font-family="sans-serif" font-size="10px" fill="#000" opacity="1">sse_diffs_to_linregmodel</text></g></g><path class="foreground" aria-hidden="true" d="" pointer-events="none" display="none"/></g><g transform="translate(0,16)"><path class="background" aria-hidden="true" d="M0,0h152v12.5h-152Z" pointer-events="none" opacity="1"/><g><g class="mark-symbol role-legend-symbol" pointer-events="none"><path transform="translate(6,6)" d="M5,0A5,5,0,1,1,-5,0A5,5,0,1,1,5,0" fill="#f58518" stroke="#f58518" stroke-width="1.5" opacity="0.7"/></g><g class="mark-text role-legend-label" pointer-events="none"><text text-anchor="start" transform="translate(16,9)" font-family="sans-serif" font-size="10px" fill="#000" opacity="1">sse_diffs_to_meanmodel</text></g></g><path class="foreground" aria-hidden="true" d="" pointer-events="none" display="none"/></g><g transform="translate(0,32)"><path class="background" aria-hidden="true" d="M0,0h152v12.5h-152Z" pointer-events="none" opacity="1"/><g><g class="mark-symbol role-legend-symbol" pointer-events="none"><path transform="translate(6,6)" d="M5,0A5,5,0,1,1,-5,0A5,5,0,1,1,5,0" fill="#e45756" stroke="#e45756" stroke-width="1.5" opacity="0.7"/></g><g class="mark-text role-legend-label" pointer-events="none"><text text-anchor="start" transform="translate(16,9)" font-family="sans-serif" font-size="10px" fill="#000" opacity="1">sse_diffs_to_modmeanmodel</text></g></g><path class="foreground" aria-hidden="true" d="" pointer-events="none" display="none"/></g><g transform="translate(0,48)"><path class="background" aria-hidden="true" d="M0,0h152v12.5h-152Z" pointer-events="none" opacity="1"/><g><g class="mark-symbol role-legend-symbol" pointer-events="none"><path transform="translate(6,6)" d="M5,0A5,5,0,1,1,-5,0A5,5,0,1,1,5,0" fill="#72b7b2" stroke="#72b7b2" stroke-width="1.5" opacity="0.7"/></g><g class="mark-text role-legend-label" pointer-events="none"><text text-anchor="start" transform="translate(16,9)" font-family="sans-serif" font-size="10px" fill="#000" opacity="1">sse_diffs_to_zeromodel</text></g></g><path class="foreground" aria-hidden="true" d="" pointer-events="none" display="none"/></g></g></g><path class="foreground" aria-hidden="true" d="" pointer-events="none" display="none"/></g></g><g class="mark-text role-legend-title" pointer-events="none"><text text-anchor="start" transform="translate(0,9)" font-family="sans-serif" font-size="11px" font-weight="bold" fill="#000" opacity="1">model</text></g></g><path class="foreground" aria-hidden="true" d="" pointer-events="none" display="none"/></g></g><g class="mark-group role-title"><g transform="translate(200,-22)"><path class="background" aria-hidden="true" d="M0,0h0v0h0Z" pointer-events="none"/><g><g class="mark-text role-title-text" role="graphics-symbol" aria-roledescription="title" aria-label="Title text 'Differences in prediction error for combination 4'" pointer-events="none"><text text-anchor="middle" transform="translate(0,10)" font-family="sans-serif" font-size="13px" font-weight="bold" fill="#000" opacity="1">Differences in prediction error for combination 4</text></g></g><path class="foreground" aria-hidden="true" d="" pointer-events="none" display="none"/></g></g></g><path class="foreground" aria-hidden="true" d="" display="none"/></g></g></g></svg>
