<?xml version="1.0" encoding="utf-8"?>
<!DOCTYPE svg PUBLIC "-//W3C//DTD SVG 1.1//EN" "http://www.w3.org/Graphics/SVG/1.1/DTD/svg11.dtd">
<svg xmlns="http://www.w3.org/2000/svg" xmlns:xlink="http://www.w3.org/1999/xlink" version="1.1" class="marks" width="635" height="670" viewBox="0 0 635 670"><rect width="635" height="670" fill="white"/><g fill="none" stroke-miterlimit="10" transform="translate(60,22)"><g class="mark-group role-frame root" role="graphics-object" aria-roledescription="group mark container"><g transform="translate(0,0)"><path class="background" aria-hidden="true" d="M0.5,0.5h400v500h-400Z" stroke="#ddd"/><g><g class="mark-group role-axis" aria-hidden="true"><g transform="translate(0.5,0.5)"><path class="background" aria-hidden="true" d="M0,0h0v0h0Z" pointer-events="none"/><g><g class="mark-rule role-axis-grid" pointer-events="none"><line transform="translate(0,488)" x2="400" y2="0" stroke="#ddd" stroke-width="1" opacity="1"/><line transform="translate(0,463)" x2="400" y2="0" stroke="#ddd" stroke-width="1" opacity="1"/><line transform="translate(0,438)" x2="400" y2="0" stroke="#ddd" stroke-width="1" opacity="1"/><line transform="translate(0,413)" x2="400" y2="0" stroke="#ddd" stroke-width="1" opacity="1"/><line transform="translate(0,388)" x2="400" y2="0" stroke="#ddd" stroke-width="1" opacity="1"/><line transform="translate(0,363)" x2="400" y2="0" stroke="#ddd" stroke-width="1" opacity="1"/><line transform="translate(0,338)" x2="400" y2="0" stroke="#ddd" stroke-width="1" opacity="1"/><line transform="translate(0,313)" x2="400" y2="0" stroke="#ddd" stroke-width="1" opacity="1"/><line transform="translate(0,288)" x2="400" y2="0" stroke="#ddd" stroke-width="1" opacity="1"/><line transform="translate(0,263)" x2="400" y2="0" stroke="#ddd" stroke-width="1" opacity="1"/><line transform="translate(0,238)" x2="400" y2="0" stroke="#ddd" stroke-width="1" opacity="1"/><line transform="translate(0,213)" x2="400" y2="0" stroke="#ddd" stroke-width="1" opacity="1"/><line transform="translate(0,188)" x2="400" y2="0" stroke="#ddd" stroke-width="1" opacity="1"/><line transform="translate(0,162)" x2="400" y2="0" stroke="#ddd" stroke-width="1" opacity="1"/><line transform="translate(0,138)" x2="400" y2="0" stroke="#ddd" stroke-width="1" opacity="1"/><line transform="translate(0,112)" x2="400" y2="0" stroke="#ddd" stroke-width="1" opacity="1"/><line transform="translate(0,88)" x2="400" y2="0" stroke="#ddd" stroke-width="1" opacity="1"/><line transform="translate(0,63)" x2="400" y2="0" stroke="#ddd" stroke-width="1" opacity="1"/><line transform="translate(0,37)" x2="400" y2="0" stroke="#ddd" stroke-width="1" opacity="1"/><line transform="translate(0,13)" x2="400" y2="0" stroke="#ddd" stroke-width="1" opacity="1"/></g></g><path class="foreground" aria-hidden="true" d="" pointer-events="none" display="none"/></g></g><g class="mark-group role-axis" role="graphics-symbol" aria-roledescription="axis" aria-label="X-axis for a discrete scale with 4 values: sse_diffs_to_linregmodel, sse_diffs_to_meanmodel, sse_diffs_to_modmeanmodel, sse_diffs_to_zeromodel"><g transform="translate(0.5,500.5)"><path class="background" aria-hidden="true" d="M0,0h0v0h0Z" pointer-events="none"/><g><g class="mark-rule role-axis-tick" pointer-events="none"><line transform="translate(50,0)" x2="0" y2="5" stroke="#888" stroke-width="1" opacity="1"/><line transform="translate(150,0)" x2="0" y2="5" stroke="#888" stroke-width="1" opacity="1"/><line transform="translate(250,0)" x2="0" y2="5" stroke="#888" stroke-width="1" opacity="1"/><line transform="translate(350,0)" x2="0" y2="5" stroke="#888" stroke-width="1" opacity="1"/></g><g class="mark-text role-axis-label" pointer-events="none"><text text-anchor="end" transform="translate(49.5,7) rotate(270) translate(0,3)" font-family="sans-serif" font-size="10px" fill="#000" opacity="1">sse_diffs_to_linregmodel</text><text text-anchor="end" transform="translate(149.5,7) rotate(270) translate(0,3)" font-family="sans-serif" font-size="10px" fill="#000" opacity="1">sse_diffs_to_meanmodel</text><text text-anchor="end" transform="translate(249.5,7) rotate(270) translate(0,3)" font-family="sans-serif" font-size="10px" fill="#000" opacity="1">sse_diffs_to_modmeanmodel</text><text text-anchor="end" transform="translate(349.5,7) rotate(270) translate(0,3)" font-family="sans-serif" font-size="10px" fill="#000" opacity="1">sse_diffs_to_zeromodel</text></g><g class="mark-rule role-axis-domain" pointer-events="none"><line transform="translate(0,0)" x2="400" y2="0" stroke="#888" stroke-width="1" opacity="1"/></g></g><path class="foreground" aria-hidden="true" d="" pointer-events="none" display="none"/></g></g><g class="mark-group role-axis" role="graphics-symbol" aria-roledescription="axis" aria-label="Y-axis titled 'prediction error' for a linear scale with values from −3,500 to 500"><g transform="translate(0.5,0.5)"><path class="background" aria-hidden="true" d="M0,0h0v0h0Z" pointer-events="none"/><g><g class="mark-rule role-axis-tick" pointer-events="none"><line transform="translate(0,488)" x2="-5" y2="0" stroke="#888" stroke-width="1" opacity="1"/><line transform="translate(0,463)" x2="-5" y2="0" stroke="#888" stroke-width="1" opacity="1"/><line transform="translate(0,438)" x2="-5" y2="0" stroke="#888" stroke-width="1" opacity="1"/><line transform="translate(0,413)" x2="-5" y2="0" stroke="#888" stroke-width="1" opacity="1"/><line transform="translate(0,388)" x2="-5" y2="0" stroke="#888" stroke-width="1" opacity="1"/><line transform="translate(0,363)" x2="-5" y2="0" stroke="#888" stroke-width="1" opacity="1"/><line transform="translate(0,338)" x2="-5" y2="0" stroke="#888" stroke-width="1" opacity="1"/><line transform="translate(0,313)" x2="-5" y2="0" stroke="#888" stroke-width="1" opacity="1"/><line transform="translate(0,288)" x2="-5" y2="0" stroke="#888" stroke-width="1" opacity="1"/><line transform="translate(0,263)" x2="-5" y2="0" stroke="#888" stroke-width="1" opacity="1"/><line transform="translate(0,238)" x2="-5" y2="0" stroke="#888" stroke-width="1" opacity="1"/><line transform="translate(0,213)" x2="-5" y2="0" stroke="#888" stroke-width="1" opacity="1"/><line transform="translate(0,188)" x2="-5" y2="0" stroke="#888" stroke-width="1" opacity="1"/><line transform="translate(0,162)" x2="-5" y2="0" stroke="#888" stroke-width="1" opacity="1"/><line transform="translate(0,138)" x2="-5" y2="0" stroke="#888" stroke-width="1" opacity="1"/><line transform="translate(0,112)" x2="-5" y2="0" stroke="#888" stroke-width="1" opacity="1"/><line transform="translate(0,88)" x2="-5" y2="0" stroke="#888" stroke-width="1" opacity="1"/><line transform="translate(0,63)" x2="-5" y2="0" stroke="#888" stroke-width="1" opacity="1"/><line transform="translate(0,37)" x2="-5" y2="0" stroke="#888" stroke-width="1" opacity="1"/><line transform="translate(0,13)" x2="-5" y2="0" stroke="#888" stroke-width="1" opacity="1"/></g><g class="mark-text role-axis-label" pointer-events="none"><text text-anchor="end" transform="translate(-7,490.5)" font-family="sans-serif" font-size="10px" fill="#000" opacity="1">−3,400</text><text text-anchor="end" transform="translate(-7,465.5)" font-family="sans-serif" font-size="10px" fill="#000" opacity="1">−3,200</text><text text-anchor="end" transform="translate(-7,440.5)" font-family="sans-serif" font-size="10px" fill="#000" opacity="1">−3,000</text><text text-anchor="end" transform="translate(-7,415.5)" font-family="sans-serif" font-size="10px" fill="#000" opacity="1">−2,800</text><text text-anchor="end" transform="translate(-7,390.5)" font-family="sans-serif" font-size="10px" fill="#000" opacity="1">−2,600</text><text text-anchor="end" transform="translate(-7,365.5)" font-family="sans-serif" font-size="10px" fill="#000" opacity="1">−2,400</text><text text-anchor="end" transform="translate(-7,340.5)" font-family="sans-serif" font-size="10px" fill="#000" opacity="1">−2,200</text><text text-anchor="end" transform="translate(-7,315.5)" font-family="sans-serif" font-size="10px" fill="#000" opacity="1">−2,000</text><text text-anchor="end" transform="translate(-7,290.5)" font-family="sans-serif" font-size="10px" fill="#000" opacity="1">−1,800</text><text text-anchor="end" transform="translate(-7,265.5)" font-family="sans-serif" font-size="10px" fill="#000" opacity="1">−1,600</text><text text-anchor="end" transform="translate(-7,240.5)" font-family="sans-serif" font-size="10px" fill="#000" opacity="1">−1,400</text><text text-anchor="end" transform="translate(-7,215.50000000000003)" font-family="sans-serif" font-size="10px" fill="#000" opacity="1">−1,200</text><text text-anchor="end" transform="translate(-7,190.5)" font-family="sans-serif" font-size="10px" fill="#000" opacity="1">−1,000</text><text text-anchor="end" transform="translate(-7,165.49999999999997)" font-family="sans-serif" font-size="10px" fill="#000" opacity="1">−800</text><text text-anchor="end" transform="translate(-7,140.5)" font-family="sans-serif" font-size="10px" fill="#000" opacity="1">−600</text><text text-anchor="end" transform="translate(-7,115.49999999999999)" font-family="sans-serif" font-size="10px" fill="#000" opacity="1">−400</text><text text-anchor="end" transform="translate(-7,90.50000000000003)" font-family="sans-serif" font-size="10px" fill="#000" opacity="1">−200</text><text text-anchor="end" transform="translate(-7,65.5)" font-family="sans-serif" font-size="10px" fill="#000" opacity="1">0</text><text text-anchor="end" transform="translate(-7,40.49999999999998)" font-family="sans-serif" font-size="10px" fill="#000" opacity="1">200</text><text text-anchor="end" transform="translate(-7,15.50000000000001)" font-family="sans-serif" font-size="10px" fill="#000" opacity="1">400</text></g><g class="mark-rule role-axis-domain" pointer-events="none"><line transform="translate(0,500)" x2="0" y2="-500" stroke="#888" stroke-width="1" opacity="1"/></g><g class="mark-text role-axis-title" pointer-events="none"><text text-anchor="middle" transform="translate(-44,250) rotate(-90) translate(0,-2)" font-family="sans-serif" font-size="11px" font-weight="bold" fill="#000" opacity="1">prediction error</text></g></g><path class="foreground" aria-hidden="true" d="" pointer-events="none" display="none"/></g></g><g class="mark-symbol role-mark layer_0_layer_0_marks" role="graphics-object" aria-roledescription="symbol mark container"><path aria-label="prediction error: −3195.106451; model: sse_diffs_to_meanmodel" role="graphics-symbol" aria-roledescription="point" transform="translate(150,461.88830637479697)" d="M2.7386127875258306,0A2.7386127875258306,2.7386127875258306,0,1,1,-2.7386127875258306,0A2.7386127875258306,2.7386127875258306,0,1,1,2.7386127875258306,0" stroke="#f58518" stroke-width="2" opacity="0.7"/><path aria-label="prediction error: −3204.05135458; model: sse_diffs_to_modmeanmodel" role="graphics-symbol" aria-roledescription="point" transform="translate(250,463.0064193224553)" d="M2.7386127875258306,0A2.7386127875258306,2.7386127875258306,0,1,1,-2.7386127875258306,0A2.7386127875258306,2.7386127875258306,0,1,1,2.7386127875258306,0" stroke="#e45756" stroke-width="2" opacity="0.7"/><path aria-label="prediction error: −3229.95860894; model: sse_diffs_to_zeromodel" role="graphics-symbol" aria-roledescription="point" transform="translate(350,466.2448261176803)" d="M2.7386127875258306,0A2.7386127875258306,2.7386127875258306,0,1,1,-2.7386127875258306,0A2.7386127875258306,2.7386127875258306,0,1,1,2.7386127875258306,0" stroke="#72b7b2" stroke-width="2" opacity="0.7"/><path aria-label="prediction error: −33.6478836734; model: sse_diffs_to_zeromodel" role="graphics-symbol" aria-roledescription="point" transform="translate(350,66.70598545917144)" d="M2.7386127875258306,0A2.7386127875258306,2.7386127875258306,0,1,1,-2.7386127875258306,0A2.7386127875258306,2.7386127875258306,0,1,1,2.7386127875258306,0" stroke="#72b7b2" stroke-width="2" opacity="0.7"/><path aria-label="prediction error: −2802.09237132; model: sse_diffs_to_linregmodel" role="graphics-symbol" aria-roledescription="point" transform="translate(50,412.7615464149555)" d="M2.7386127875258306,0A2.7386127875258306,2.7386127875258306,0,1,1,-2.7386127875258306,0A2.7386127875258306,2.7386127875258306,0,1,1,2.7386127875258306,0" stroke="#4c78a8" stroke-width="2" opacity="0.7"/></g><g class="mark-rule role-mark layer_0_layer_1_layer_0_marks" aria-hidden="true"><line transform="translate(150,65.47653183199054)" x2="0" y2="-3.2262043648692043" stroke="black"/><line transform="translate(250,66.00786792014479)" x2="0" y2="-3.0504189208745416" stroke="black"/><line transform="translate(350,64.64901556853314)" x2="0" y2="-1.569673371231488" stroke="black"/><line transform="translate(50,54.89303590739891)" x2="0" y2="-5.300890908279619" stroke="black"/></g><g class="mark-rule role-mark layer_0_layer_1_layer_1_marks" aria-hidden="true"><line transform="translate(150,60.04178233471974)" x2="0" y2="-2.4739055308660767" stroke="black"/><line transform="translate(250,60.685551492481395)" x2="0" y2="-2.4390902149190055" stroke="black"/><line transform="translate(350,60.89461580508282)" x2="0" y2="-3.204608606371508" stroke="black"/><line transform="translate(50,30.6167238565791)" x2="0" y2="-14.838424758488124" stroke="black"/></g><g class="mark-rect role-mark layer_1_layer_0_marks" role="graphics-object" aria-roledescription="rect mark container"><path aria-label="prediction error: 1.99738026303; upper_box_prediction_error: 19.6657413222; model: sse_diffs_to_meanmodel; Max of prediction error: 39.4569855692; Q3 of prediction error: 19.6657413222; Median of prediction error: 10.92118848; Q1 of prediction error: 1.99738026303; Min of prediction error: −3195.106451" role="graphics-symbol" aria-roledescription="box" d="M125,60.04178233471974h50v2.2085451324015963h-50Z" fill="#f58518"/><path aria-label="prediction error: −3.65959199416; upper_box_prediction_error: 14.5155880601; model: sse_diffs_to_modmeanmodel; Max of prediction error: 34.0283097795; Q3 of prediction error: 14.5155880601; Median of prediction error: 5.45611989747; Q1 of prediction error: −3.65959199416; Min of prediction error: −3204.05135458" role="graphics-symbol" aria-roledescription="box" d="M225,60.685551492481395h50v2.2718975067888536h-50Z" fill="#e45756"/><path aria-label="prediction error: −4.63473757841; upper_box_prediction_error: 12.8430735593; model: sse_diffs_to_zeromodel; Max of prediction error: 38.4799424103; Q3 of prediction error: 12.8430735593; Median of prediction error: 3.16372029844; Q1 of prediction error: −4.63473757841; Min of prediction error: −3229.95860894" role="graphics-symbol" aria-roledescription="box" d="M325,60.89461580508282h50v2.1847263922188347h-50Z" fill="#72b7b2"/><path aria-label="prediction error: 103.262840007; upper_box_prediction_error: 255.066209147; model: sse_diffs_to_linregmodel; Max of prediction error: 373.773607215; Q3 of prediction error: 255.066209147; Median of prediction error: 155.078406428; Q1 of prediction error: 103.262840007; Min of prediction error: −2802.09237132" role="graphics-symbol" aria-roledescription="box" d="M25,30.6167238565791h50v18.975421142540192h-50Z" fill="#4c78a8"/></g><g class="mark-rect role-mark layer_1_layer_1_marks" aria-hidden="true"><path d="M125,60.634851440005576h50v1h-50Z" fill="white" opacity="0.7"/><path d="M225,61.31798501281577h50v1h-50Z" fill="white" opacity="0.7"/><path d="M325,61.60453496269547h50v1h-50Z" fill="white" opacity="0.7"/><path d="M25,42.61519919655671h50v1h-50Z" fill="white" opacity="0.7"/></g><g class="mark-group role-legend" role="graphics-symbol" aria-roledescription="legend" aria-label="Symbol legend titled 'model' for fill color and stroke color with 4 values: sse_diffs_to_linregmodel, sse_diffs_to_meanmodel, sse_diffs_to_modmeanmodel, sse_diffs_to_zeromodel"><g transform="translate(418,0)"><path class="background" aria-hidden="true" d="M0,0h152v77h-152Z" pointer-events="none"/><g><g class="mark-group role-legend-entry"><g transform="translate(0,16)"><path class="background" aria-hidden="true" d="M0,0h0v0h0Z" pointer-events="none"/><g><g class="mark-group role-scope" role="graphics-object" aria-roledescription="group mark container"><g transform="translate(0,0)"><path class="background" aria-hidden="true" d="M0,0h152v12.5h-152Z" pointer-events="none" opacity="1"/><g><g class="mark-symbol role-legend-symbol" pointer-events="none"><path transform="translate(6,6)" d="M5,0A5,5,0,1,1,-5,0A5,5,0,1,1,5,0" fill="#4c78a8" stroke="#4c78a8" stroke-width="1.5" opacity="0.7"/></g><g class="mark-text role-legend-label" pointer-events="none"><text text-anchor="start" transform="translate(16,9)" font-family="sans-serif" font-size="10px" fill="#000" opacity="1">sse_diffs_to_linregmodel</text></g></g><path class="foreground" aria-hidden="true" d="" pointer-events="none" display="none"/></g><g transform="translate(0,16)"><path class="background" aria-hidden="true" d="M0,0h152v12.5h-152Z" pointer-events="none" opacity="1"/><g><g class="mark-symbol role-legend-symbol" pointer-events="none"><path transform="translate(6,6)" d="M5,0A5,5,0,1,1,-5,0A5,5,0,1,1,5,0" fill="#f58518" stroke="#f58518" stroke-width="1.5" opacity="0.7"/></g><g class="mark-text role-legend-label" pointer-events="none"><text text-anchor="start" transform="translate(16,9)" font-family="sans-serif" font-size="10px" fill="#000" opacity="1">sse_diffs_to_meanmodel</text></g></g><path class="foreground" aria-hidden="true" d="" pointer-events="none" display="none"/></g><g transform="translate(0,32)"><path class="background" aria-hidden="true" d="M0,0h152v12.5h-152Z" pointer-events="none" opacity="1"/><g><g class="mark-symbol role-legend-symbol" pointer-events="none"><path transform="translate(6,6)" d="M5,0A5,5,0,1,1,-5,0A5,5,0,1,1,5,0" fill="#e45756" stroke="#e45756" stroke-width="1.5" opacity="0.7"/></g><g class="mark-text role-legend-label" pointer-events="none"><text text-anchor="start" transform="translate(16,9)" font-family="sans-serif" font-size="10px" fill="#000" opacity="1">sse_diffs_to_modmeanmodel</text></g></g><path class="foreground" aria-hidden="true" d="" pointer-events="none" display="none"/></g><g transform="translate(0,48)"><path class="background" aria-hidden="true" d="M0,0h152v12.5h-152Z" pointer-events="none" opacity="1"/><g><g class="mark-symbol role-legend-symbol" pointer-events="none"><path transform="translate(6,6)" d="M5,0A5,5,0,1,1,-5,0A5,5,0,1,1,5,0" fill="#72b7b2" stroke="#72b7b2" stroke-width="1.5" opacity="0.7"/></g><g class="mark-text role-legend-label" pointer-events="none"><text text-anchor="start" transform="translate(16,9)" font-family="sans-serif" font-size="10px" fill="#000" opacity="1">sse_diffs_to_zeromodel</text></g></g><path class="foreground" aria-hidden="true" d="" pointer-events="none" display="none"/></g></g></g><path class="foreground" aria-hidden="true" d="" pointer-events="none" display="none"/></g></g><g class="mark-text role-legend-title" pointer-events="none"><text text-anchor="start" transform="translate(0,9)" font-family="sans-serif" font-size="11px" font-weight="bold" fill="#000" opacity="1">model</text></g></g><path class="foreground" aria-hidden="true" d="" pointer-events="none" display="none"/></g></g><g class="mark-group role-title"><g transform="translate(200,-17)"><path class="background" aria-hidden="true" d="M0,0h0v0h0Z" pointer-events="none"/><g><g class="mark-text role-title-text" role="graphics-symbol" aria-roledescription="title" aria-label="Title text 'Differences in prediction error for combination 8'" pointer-events="none"><text text-anchor="middle" transform="translate(0,10)" font-family="sans-serif" font-size="13px" font-weight="bold" fill="#000" opacity="1">Differences in prediction error for combination 8</text></g></g><path class="foreground" aria-hidden="true" d="" pointer-events="none" display="none"/></g></g></g><path class="foreground" aria-hidden="true" d="" display="none"/></g></g></g></svg>
