<?xml version="1.0" encoding="utf-8"?>
<!DOCTYPE svg PUBLIC "-//W3C//DTD SVG 1.1//EN" "http://www.w3.org/Graphics/SVG/1.1/DTD/svg11.dtd">
<svg xmlns="http://www.w3.org/2000/svg" xmlns:xlink="http://www.w3.org/1999/xlink" version="1.1" class="marks" width="1199" height="450" viewBox="0 0 1199 450"><rect width="1199" height="450" fill="white"/><g fill="none" stroke-miterlimit="10" transform="translate(39,13)"><g class="mark-group role-frame root" role="graphics-object" aria-roledescription="group mark container"><g transform="translate(0,0)"><path class="background" aria-hidden="true" d="M0.5,0.5h1000v400h-1000Z" stroke="#ddd"/><g><g class="mark-group role-axis" aria-hidden="true"><g transform="translate(0.5,400.5)"><path class="background" aria-hidden="true" d="M0,0h0v0h0Z" pointer-events="none"/><g><g class="mark-rule role-axis-grid" pointer-events="none"><line transform="translate(14,-400)" x2="0" y2="400" stroke="#ddd" stroke-width="1" opacity="1"/><line transform="translate(44,-400)" x2="0" y2="400" stroke="#ddd" stroke-width="1" opacity="1"/><line transform="translate(74,-400)" x2="0" y2="400" stroke="#ddd" stroke-width="1" opacity="1"/><line transform="translate(105,-400)" x2="0" y2="400" stroke="#ddd" stroke-width="1" opacity="1"/><line transform="translate(135,-400)" x2="0" y2="400" stroke="#ddd" stroke-width="1" opacity="1"/><line transform="translate(165,-400)" x2="0" y2="400" stroke="#ddd" stroke-width="1" opacity="1"/><line transform="translate(196,-400)" x2="0" y2="400" stroke="#ddd" stroke-width="1" opacity="1"/><line transform="translate(226,-400)" x2="0" y2="400" stroke="#ddd" stroke-width="1" opacity="1"/><line transform="translate(256,-400)" x2="0" y2="400" stroke="#ddd" stroke-width="1" opacity="1"/><line transform="translate(287,-400)" x2="0" y2="400" stroke="#ddd" stroke-width="1" opacity="1"/><line transform="translate(317,-400)" x2="0" y2="400" stroke="#ddd" stroke-width="1" opacity="1"/><line transform="translate(347,-400)" x2="0" y2="400" stroke="#ddd" stroke-width="1" opacity="1"/><line transform="translate(378,-400)" x2="0" y2="400" stroke="#ddd" stroke-width="1" opacity="1"/><line transform="translate(408,-400)" x2="0" y2="400" stroke="#ddd" stroke-width="1" opacity="1"/><line transform="translate(438,-400)" x2="0" y2="400" stroke="#ddd" stroke-width="1" opacity="1"/><line transform="translate(468,-400)" x2="0" y2="400" stroke="#ddd" stroke-width="1" opacity="1"/><line transform="translate(499,-400)" x2="0" y2="400" stroke="#ddd" stroke-width="1" opacity="1"/><line transform="translate(529,-400)" x2="0" y2="400" stroke="#ddd" stroke-width="1" opacity="1"/><line transform="translate(559,-400)" x2="0" y2="400" stroke="#ddd" stroke-width="1" opacity="1"/><line transform="translate(590,-400)" x2="0" y2="400" stroke="#ddd" stroke-width="1" opacity="1"/><line transform="translate(620,-400)" x2="0" y2="400" stroke="#ddd" stroke-width="1" opacity="1"/><line transform="translate(650,-400)" x2="0" y2="400" stroke="#ddd" stroke-width="1" opacity="1"/><line transform="translate(665,-400)" x2="0" y2="400" stroke="#ddd" stroke-width="1" opacity="1"/><line transform="translate(696,-400)" x2="0" y2="400" stroke="#ddd" stroke-width="1" opacity="1"/><line transform="translate(726,-400)" x2="0" y2="400" stroke="#ddd" stroke-width="1" opacity="1"/><line transform="translate(756,-400)" x2="0" y2="400" stroke="#ddd" stroke-width="1" opacity="1"/><line transform="translate(787,-400)" x2="0" y2="400" stroke="#ddd" stroke-width="1" opacity="1"/><line transform="translate(817,-400)" x2="0" y2="400" stroke="#ddd" stroke-width="1" opacity="1"/><line transform="translate(847,-400)" x2="0" y2="400" stroke="#ddd" stroke-width="1" opacity="1"/><line transform="translate(878,-400)" x2="0" y2="400" stroke="#ddd" stroke-width="1" opacity="1"/><line transform="translate(908,-400)" x2="0" y2="400" stroke="#ddd" stroke-width="1" opacity="1"/><line transform="translate(938,-400)" x2="0" y2="400" stroke="#ddd" stroke-width="1" opacity="1"/><line transform="translate(968,-400)" x2="0" y2="400" stroke="#ddd" stroke-width="1" opacity="1"/><line transform="translate(999,-400)" x2="0" y2="400" stroke="#ddd" stroke-width="1" opacity="1"/></g></g><path class="foreground" aria-hidden="true" d="" pointer-events="none" display="none"/></g></g><g class="mark-group role-axis" aria-hidden="true"><g transform="translate(0.5,0.5)"><path class="background" aria-hidden="true" d="M0,0h0v0h0Z" pointer-events="none"/><g><g class="mark-rule role-axis-grid" pointer-events="none"><line transform="translate(0,400)" x2="1000" y2="0" stroke="#ddd" stroke-width="1" opacity="1"/><line transform="translate(0,371)" x2="1000" y2="0" stroke="#ddd" stroke-width="1" opacity="1"/><line transform="translate(0,343)" x2="1000" y2="0" stroke="#ddd" stroke-width="1" opacity="1"/><line transform="translate(0,314)" x2="1000" y2="0" stroke="#ddd" stroke-width="1" opacity="1"/><line transform="translate(0,286)" x2="1000" y2="0" stroke="#ddd" stroke-width="1" opacity="1"/><line transform="translate(0,257)" x2="1000" y2="0" stroke="#ddd" stroke-width="1" opacity="1"/><line transform="translate(0,229)" x2="1000" y2="0" stroke="#ddd" stroke-width="1" opacity="1"/><line transform="translate(0,200)" x2="1000" y2="0" stroke="#ddd" stroke-width="1" opacity="1"/><line transform="translate(0,171)" x2="1000" y2="0" stroke="#ddd" stroke-width="1" opacity="1"/><line transform="translate(0,143)" x2="1000" y2="0" stroke="#ddd" stroke-width="1" opacity="1"/><line transform="translate(0,114)" x2="1000" y2="0" stroke="#ddd" stroke-width="1" opacity="1"/><line transform="translate(0,86)" x2="1000" y2="0" stroke="#ddd" stroke-width="1" opacity="1"/><line transform="translate(0,57)" x2="1000" y2="0" stroke="#ddd" stroke-width="1" opacity="1"/><line transform="translate(0,29)" x2="1000" y2="0" stroke="#ddd" stroke-width="1" opacity="1"/><line transform="translate(0,0)" x2="1000" y2="0" stroke="#ddd" stroke-width="1" opacity="1"/></g></g><path class="foreground" aria-hidden="true" d="" pointer-events="none" display="none"/></g></g><g class="mark-group role-axis" role="graphics-symbol" aria-roledescription="axis" aria-label="X-axis titled 'Date' for a time scale with values from Saturday, 18 April 2020, 2:00:00 AM to Tuesday, 23 June 2020, 2:00:00 AM"><g transform="translate(0.5,400.5)"><path class="background" aria-hidden="true" d="M0,0h0v0h0Z" pointer-events="none"/><g><g class="mark-rule role-axis-tick" pointer-events="none"><line transform="translate(14,0)" x2="0" y2="5" stroke="#888" stroke-width="1" opacity="1"/><line transform="translate(44,0)" x2="0" y2="5" stroke="#888" stroke-width="1" opacity="1"/><line transform="translate(74,0)" x2="0" y2="5" stroke="#888" stroke-width="1" opacity="1"/><line transform="translate(105,0)" x2="0" y2="5" stroke="#888" stroke-width="1" opacity="1"/><line transform="translate(135,0)" x2="0" y2="5" stroke="#888" stroke-width="1" opacity="1"/><line transform="translate(165,0)" x2="0" y2="5" stroke="#888" stroke-width="1" opacity="1"/><line transform="translate(196,0)" x2="0" y2="5" stroke="#888" stroke-width="1" opacity="1"/><line transform="translate(226,0)" x2="0" y2="5" stroke="#888" stroke-width="1" opacity="1"/><line transform="translate(256,0)" x2="0" y2="5" stroke="#888" stroke-width="1" opacity="1"/><line transform="translate(287,0)" x2="0" y2="5" stroke="#888" stroke-width="1" opacity="1"/><line transform="translate(317,0)" x2="0" y2="5" stroke="#888" stroke-width="1" opacity="1"/><line transform="translate(347,0)" x2="0" y2="5" stroke="#888" stroke-width="1" opacity="1"/><line transform="translate(378,0)" x2="0" y2="5" stroke="#888" stroke-width="1" opacity="1"/><line transform="translate(408,0)" x2="0" y2="5" stroke="#888" stroke-width="1" opacity="1"/><line transform="translate(438,0)" x2="0" y2="5" stroke="#888" stroke-width="1" opacity="1"/><line transform="translate(468,0)" x2="0" y2="5" stroke="#888" stroke-width="1" opacity="1"/><line transform="translate(499,0)" x2="0" y2="5" stroke="#888" stroke-width="1" opacity="1"/><line transform="translate(529,0)" x2="0" y2="5" stroke="#888" stroke-width="1" opacity="1"/><line transform="translate(559,0)" x2="0" y2="5" stroke="#888" stroke-width="1" opacity="1"/><line transform="translate(590,0)" x2="0" y2="5" stroke="#888" stroke-width="1" opacity="1"/><line transform="translate(620,0)" x2="0" y2="5" stroke="#888" stroke-width="1" opacity="1"/><line transform="translate(650,0)" x2="0" y2="5" stroke="#888" stroke-width="1" opacity="1"/><line transform="translate(665,0)" x2="0" y2="5" stroke="#888" stroke-width="1" opacity="1"/><line transform="translate(696,0)" x2="0" y2="5" stroke="#888" stroke-width="1" opacity="1"/><line transform="translate(726,0)" x2="0" y2="5" stroke="#888" stroke-width="1" opacity="1"/><line transform="translate(756,0)" x2="0" y2="5" stroke="#888" stroke-width="1" opacity="1"/><line transform="translate(787,0)" x2="0" y2="5" stroke="#888" stroke-width="1" opacity="1"/><line transform="translate(817,0)" x2="0" y2="5" stroke="#888" stroke-width="1" opacity="1"/><line transform="translate(847,0)" x2="0" y2="5" stroke="#888" stroke-width="1" opacity="1"/><line transform="translate(878,0)" x2="0" y2="5" stroke="#888" stroke-width="1" opacity="1"/><line transform="translate(908,0)" x2="0" y2="5" stroke="#888" stroke-width="1" opacity="1"/><line transform="translate(938,0)" x2="0" y2="5" stroke="#888" stroke-width="1" opacity="1"/><line transform="translate(968,0)" x2="0" y2="5" stroke="#888" stroke-width="1" opacity="1"/><line transform="translate(999,0)" x2="0" y2="5" stroke="#888" stroke-width="1" opacity="1"/></g><g class="mark-text role-axis-label" pointer-events="none"><text text-anchor="middle" transform="translate(13.888888888888888,15)" font-family="sans-serif" font-size="10px" fill="#000" opacity="1">Apr 19</text><text text-anchor="middle" transform="translate(44.19191919191919,15)" font-family="sans-serif" font-size="10px" fill="#000" opacity="0">Tue 21</text><text text-anchor="middle" transform="translate(74.4949494949495,15)" font-family="sans-serif" font-size="10px" fill="#000" opacity="1">Thu 23</text><text text-anchor="middle" transform="translate(104.79797979797979,15)" font-family="sans-serif" font-size="10px" fill="#000" opacity="0">Sat 25</text><text text-anchor="middle" transform="translate(135.1010101010101,15)" font-family="sans-serif" font-size="10px" fill="#000" opacity="1">Mon 27</text><text text-anchor="middle" transform="translate(165.40404040404042,15)" font-family="sans-serif" font-size="10px" fill="#000" opacity="0">Wed 29</text><text text-anchor="middle" transform="translate(195.70707070707073,15)" font-family="sans-serif" font-size="10px" fill="#000" opacity="1">May</text><text text-anchor="middle" transform="translate(226.010101010101,15)" font-family="sans-serif" font-size="10px" fill="#000" opacity="0">May 03</text><text text-anchor="middle" transform="translate(256.31313131313135,15)" font-family="sans-serif" font-size="10px" fill="#000" opacity="1">Tue 05</text><text text-anchor="middle" transform="translate(286.6161616161616,15)" font-family="sans-serif" font-size="10px" fill="#000" opacity="0">Thu 07</text><text text-anchor="middle" transform="translate(316.9191919191919,15)" font-family="sans-serif" font-size="10px" fill="#000" opacity="1">Sat 09</text><text text-anchor="middle" transform="translate(347.22222222222223,15)" font-family="sans-serif" font-size="10px" fill="#000" opacity="0">Mon 11</text><text text-anchor="middle" transform="translate(377.52525252525254,15)" font-family="sans-serif" font-size="10px" fill="#000" opacity="1">Wed 13</text><text text-anchor="middle" transform="translate(407.8282828282828,15)" font-family="sans-serif" font-size="10px" fill="#000" opacity="0">Fri 15</text><text text-anchor="middle" transform="translate(438.13131313131316,15)" font-family="sans-serif" font-size="10px" fill="#000" opacity="1">May 17</text><text text-anchor="middle" transform="translate(468.4343434343434,15)" font-family="sans-serif" font-size="10px" fill="#000" opacity="0">Tue 19</text><text text-anchor="middle" transform="translate(498.73737373737373,15)" font-family="sans-serif" font-size="10px" fill="#000" opacity="1">Thu 21</text><text text-anchor="middle" transform="translate(529.040404040404,15)" font-family="sans-serif" font-size="10px" fill="#000" opacity="0">Sat 23</text><text text-anchor="middle" transform="translate(559.3434343434344,15)" font-family="sans-serif" font-size="10px" fill="#000" opacity="1">Mon 25</text><text text-anchor="middle" transform="translate(589.6464646464647,15)" font-family="sans-serif" font-size="10px" fill="#000" opacity="0">Wed 27</text><text text-anchor="middle" transform="translate(619.9494949494949,15)" font-family="sans-serif" font-size="10px" fill="#000" opacity="1">Fri 29</text><text text-anchor="middle" transform="translate(650.2525252525253,15)" font-family="sans-serif" font-size="10px" fill="#000" opacity="0">May 31</text><text text-anchor="middle" transform="translate(665.4040404040404,15)" font-family="sans-serif" font-size="10px" fill="#000" opacity="1">June</text><text text-anchor="middle" transform="translate(695.7070707070707,15)" font-family="sans-serif" font-size="10px" fill="#000" opacity="0">Wed 03</text><text text-anchor="middle" transform="translate(726.010101010101,15)" font-family="sans-serif" font-size="10px" fill="#000" opacity="1">Fri 05</text><text text-anchor="middle" transform="translate(756.3131313131313,15)" font-family="sans-serif" font-size="10px" fill="#000" opacity="0">Jun 07</text><text text-anchor="middle" transform="translate(786.6161616161617,15)" font-family="sans-serif" font-size="10px" fill="#000" opacity="1">Tue 09</text><text text-anchor="middle" transform="translate(816.9191919191919,15)" font-family="sans-serif" font-size="10px" fill="#000" opacity="0">Thu 11</text><text text-anchor="middle" transform="translate(847.2222222222222,15)" font-family="sans-serif" font-size="10px" fill="#000" opacity="1">Sat 13</text><text text-anchor="middle" transform="translate(877.5252525252525,15)" font-family="sans-serif" font-size="10px" fill="#000" opacity="0">Mon 15</text><text text-anchor="middle" transform="translate(907.8282828282829,15)" font-family="sans-serif" font-size="10px" fill="#000" opacity="1">Wed 17</text><text text-anchor="middle" transform="translate(938.1313131313132,15)" font-family="sans-serif" font-size="10px" fill="#000" opacity="0">Fri 19</text><text text-anchor="middle" transform="translate(968.4343434343434,15)" font-family="sans-serif" font-size="10px" fill="#000" opacity="1">Jun 21</text><text text-anchor="middle" transform="translate(998.7373737373737,15)" font-family="sans-serif" font-size="10px" fill="#000" opacity="0">Tue 23</text></g><g class="mark-rule role-axis-domain" pointer-events="none"><line transform="translate(0,0)" x2="1000" y2="0" stroke="#888" stroke-width="1" opacity="1"/></g><g class="mark-text role-axis-title" pointer-events="none"><text text-anchor="middle" transform="translate(500,30)" font-family="sans-serif" font-size="11px" font-weight="bold" fill="#000" opacity="1">Date</text></g></g><path class="foreground" aria-hidden="true" d="" pointer-events="none" display="none"/></g></g><g class="mark-group role-axis" role="graphics-symbol" aria-roledescription="axis" aria-label="Y-axis titled 'Number of prevalent COVID-19 cases' for a linear scale with values from 0 to 14"><g transform="translate(0.5,0.5)"><path class="background" aria-hidden="true" d="M0,0h0v0h0Z" pointer-events="none"/><g><g class="mark-rule role-axis-tick" pointer-events="none"><line transform="translate(0,400)" x2="-5" y2="0" stroke="#888" stroke-width="1" opacity="1"/><line transform="translate(0,371)" x2="-5" y2="0" stroke="#888" stroke-width="1" opacity="1"/><line transform="translate(0,343)" x2="-5" y2="0" stroke="#888" stroke-width="1" opacity="1"/><line transform="translate(0,314)" x2="-5" y2="0" stroke="#888" stroke-width="1" opacity="1"/><line transform="translate(0,286)" x2="-5" y2="0" stroke="#888" stroke-width="1" opacity="1"/><line transform="translate(0,257)" x2="-5" y2="0" stroke="#888" stroke-width="1" opacity="1"/><line transform="translate(0,229)" x2="-5" y2="0" stroke="#888" stroke-width="1" opacity="1"/><line transform="translate(0,200)" x2="-5" y2="0" stroke="#888" stroke-width="1" opacity="1"/><line transform="translate(0,171)" x2="-5" y2="0" stroke="#888" stroke-width="1" opacity="1"/><line transform="translate(0,143)" x2="-5" y2="0" stroke="#888" stroke-width="1" opacity="1"/><line transform="translate(0,114)" x2="-5" y2="0" stroke="#888" stroke-width="1" opacity="1"/><line transform="translate(0,86)" x2="-5" y2="0" stroke="#888" stroke-width="1" opacity="1"/><line transform="translate(0,57)" x2="-5" y2="0" stroke="#888" stroke-width="1" opacity="1"/><line transform="translate(0,29)" x2="-5" y2="0" stroke="#888" stroke-width="1" opacity="1"/><line transform="translate(0,0)" x2="-5" y2="0" stroke="#888" stroke-width="1" opacity="1"/></g><g class="mark-text role-axis-label" pointer-events="none"><text text-anchor="end" transform="translate(-7,403)" font-family="sans-serif" font-size="10px" fill="#000" opacity="1">0</text><text text-anchor="end" transform="translate(-7,374.42857142857144)" font-family="sans-serif" font-size="10px" fill="#000" opacity="1">1</text><text text-anchor="end" transform="translate(-7,345.8571428571429)" font-family="sans-serif" font-size="10px" fill="#000" opacity="1">2</text><text text-anchor="end" transform="translate(-7,317.2857142857143)" font-family="sans-serif" font-size="10px" fill="#000" opacity="1">3</text><text text-anchor="end" transform="translate(-7,288.7142857142857)" font-family="sans-serif" font-size="10px" fill="#000" opacity="1">4</text><text text-anchor="end" transform="translate(-7,260.1428571428571)" font-family="sans-serif" font-size="10px" fill="#000" opacity="1">5</text><text text-anchor="end" transform="translate(-7,231.57142857142856)" font-family="sans-serif" font-size="10px" fill="#000" opacity="1">6</text><text text-anchor="end" transform="translate(-7,203)" font-family="sans-serif" font-size="10px" fill="#000" opacity="1">7</text><text text-anchor="end" transform="translate(-7,174.42857142857144)" font-family="sans-serif" font-size="10px" fill="#000" opacity="1">8</text><text text-anchor="end" transform="translate(-7,145.85714285714283)" font-family="sans-serif" font-size="10px" fill="#000" opacity="1">9</text><text text-anchor="end" transform="translate(-7,117.28571428571428)" font-family="sans-serif" font-size="10px" fill="#000" opacity="1">10</text><text text-anchor="end" transform="translate(-7,88.71428571428572)" font-family="sans-serif" font-size="10px" fill="#000" opacity="1">11</text><text text-anchor="end" transform="translate(-7,60.14285714285716)" font-family="sans-serif" font-size="10px" fill="#000" opacity="1">12</text><text text-anchor="end" transform="translate(-7,31.57142857142856)" font-family="sans-serif" font-size="10px" fill="#000" opacity="1">13</text><text text-anchor="end" transform="translate(-7,3)" font-family="sans-serif" font-size="10px" fill="#000" opacity="1">14</text></g><g class="mark-rule role-axis-domain" pointer-events="none"><line transform="translate(0,400)" x2="0" y2="-400" stroke="#888" stroke-width="1" opacity="1"/></g><g class="mark-text role-axis-title" pointer-events="none"><text text-anchor="middle" transform="translate(-23,200) rotate(-90) translate(0,-2)" font-family="sans-serif" font-size="11px" font-weight="bold" fill="#000" opacity="1">Number of prevalent COVID-19 cases</text></g></g><path class="foreground" aria-hidden="true" d="" pointer-events="none" display="none"/></g></g><g class="mark-line role-mark layer_0_marks" role="graphics-object" aria-roledescription="line mark container"><path aria-label="Date: Apr 18, 2020; Number of prevalent COVID-19 cases: 12" role="graphics-symbol" aria-roledescription="line mark" d="M0,57.14285714285716L15.151515151515152,57.14285714285716L30.303030303030305,30.0789040235911L45.45454545454545,0L60.60606060606061,0L75.75757575757576,0.07348573541876569L90.9090909090909,5.063490764917811L106.06060606060606,13.78655993664255L121.21212121212122,25.277777014226643L136.36363636363635,28.57142857142856L151.51515151515153,114.28571428571428L166.66666666666666,117.95985752335328L181.8181818181818,142.85714285714283L196.96969696969697,147.71496416310853L212.12121212121212,154.67832521088235L227.27272727272725,171.42857142857144L242.42424242424244,179.17243486013916L257.57575757575756,171.42857142857144L272.7272727272727,200L287.8787878787879,208.76944042027796L303.03030303030306,228.57142857142856L318.1818181818182,235.2386084053025L333.3333333333333,242.12452517139457L348.4848484848485,285.7142857142857L363.6363636363636,257.1428571428571L378.7878787878788,257.1428571428571L393.93939393939394,264.5704029652199L409.0909090909091,285.7142857142857L424.24242424242425,285.7142857142857L439.3939393939394,285.7142857142857L454.5454545454545,285.7142857142857L469.69696969696975,285.7142857142857L484.8484848484849,285.7142857142857L500,285.7142857142857L515.1515151515151,314.2857142857143L530.3030303030303,314.2857142857143L545.4545454545454,314.2857142857143L560.6060606060605,314.2857142857143L575.7575757575758,342.8571428571429L590.909090909091,342.8571428571429L606.0606060606061,342.8571428571429L621.2121212121212,342.8928492405474L636.3636363636364,342.8571428571429L651.5151515151515,371.42857142857144L666.6666666666666,371.42857142857144L681.8181818181818,367.6647807708787L696.969696969697,371.42857142857144L712.1212121212121,371.42857142857144L727.2727272727273,371.42857142857144L742.4242424242424,371.42857142857144L757.5757575757576,371.42857142857144L772.7272727272727,371.42857142857144L787.8787878787879,371.42857142857144L803.030303030303,370.39010154329384L818.1818181818182,371.42857142857144L833.3333333333334,371.42857142857144L848.4848484848485,371.42857142857144L863.6363636363636,371.42857142857144L878.7878787878788,371.42857142857144L893.9393939393939,371.42857142857144L909.090909090909,371.42857142857144L924.2424242424242,371.42857142857144L939.3939393939395,371.42857142857144L954.5454545454546,371.57144420486026L969.6969696969697,371.42857142857144L984.8484848484849,371.5295687837727L1000,371.42857142857144" stroke="#1f77b4" stroke-width="2" opacity="0.7"/></g><g class="mark-symbol role-mark layer_1_marks" role="graphics-object" aria-roledescription="symbol mark container"><path aria-label="Date: Apr 20, 2020; Number of prevalent COVID-19 cases: 11.7924552848" role="graphics-symbol" aria-roledescription="point" transform="translate(30.303030303030305,63.07270614801155)" d="M7.905694150420948,0A7.905694150420948,7.905694150420948,0,1,1,-7.905694150420948,0A7.905694150420948,7.905694150420948,0,1,1,7.905694150420948,0" fill="#ff7f0e" stroke-width="2" opacity="0.5"/><path aria-label="Date: Apr 23, 2020; Number of prevalent COVID-19 cases: 13.75847979" role="graphics-symbol" aria-roledescription="point" transform="translate(75.75757575757576,6.900577429859478)" d="M7.905694150420948,0A7.905694150420948,7.905694150420948,0,1,1,-7.905694150420948,0A7.905694150420948,7.905694150420948,0,1,1,7.905694150420948,0" fill="#ff7f0e" stroke-width="2" opacity="0.5"/><path aria-label="Date: Apr 24, 2020; Number of prevalent COVID-19 cases: 13.5161998162" role="graphics-symbol" aria-roledescription="point" transform="translate(90.9090909090909,13.822862395505586)" d="M7.905694150420948,0A7.905694150420948,7.905694150420948,0,1,1,-7.905694150420948,0A7.905694150420948,7.905694150420948,0,1,1,7.905694150420948,0" fill="#ff7f0e" stroke-width="2" opacity="0.5"/><path aria-label="Date: Apr 25, 2020; Number of prevalent COVID-19 cases: 13.2733190863" role="graphics-symbol" aria-roledescription="point" transform="translate(106.06060606060606,20.762311820651867)" d="M7.905694150420948,0A7.905694150420948,7.905694150420948,0,1,1,-7.905694150420948,0A7.905694150420948,7.905694150420948,0,1,1,7.905694150420948,0" fill="#ff7f0e" stroke-width="2" opacity="0.5"/><path aria-label="Date: Apr 26, 2020; Number of prevalent COVID-19 cases: 13.0300057308" role="graphics-symbol" aria-roledescription="point" transform="translate(121.21212121212122,27.71412197652512)" d="M7.905694150420948,0A7.905694150420948,7.905694150420948,0,1,1,-7.905694150420948,0A7.905694150420948,7.905694150420948,0,1,1,7.905694150420948,0" fill="#ff7f0e" stroke-width="2" opacity="0.5"/><path aria-label="Date: Apr 29, 2020; Number of prevalent COVID-19 cases: 9.78531150987" role="graphics-symbol" aria-roledescription="point" transform="translate(166.66666666666666,120.41967114655768)" d="M7.905694150420948,0A7.905694150420948,7.905694150420948,0,1,1,-7.905694150420948,0A7.905694150420948,7.905694150420948,0,1,1,7.905694150420948,0" fill="#ff7f0e" stroke-width="2" opacity="0.5"/><path aria-label="Date: May 01, 2020; Number of prevalent COVID-19 cases: 8.79181800973" role="graphics-symbol" aria-roledescription="point" transform="translate(196.96969696969697,148.8051997220308)" d="M7.905694150420948,0A7.905694150420948,7.905694150420948,0,1,1,-7.905694150420948,0A7.905694150420948,7.905694150420948,0,1,1,7.905694150420948,0" fill="#ff7f0e" stroke-width="2" opacity="0.5"/><path aria-label="Date: May 02, 2020; Number of prevalent COVID-19 cases: 8.58382279802" role="graphics-symbol" aria-roledescription="point" transform="translate(212.12121212121212,154.74792005651233)" d="M7.905694150420948,0A7.905694150420948,7.905694150420948,0,1,1,-7.905694150420948,0A7.905694150420948,7.905694150420948,0,1,1,7.905694150420948,0" fill="#ff7f0e" stroke-width="2" opacity="0.5"/><path aria-label="Date: May 04, 2020; Number of prevalent COVID-19 cases: 7.7971150181" role="graphics-symbol" aria-roledescription="point" transform="translate(242.42424242424244,177.22528519705781)" d="M7.905694150420948,0A7.905694150420948,7.905694150420948,0,1,1,-7.905694150420948,0A7.905694150420948,7.905694150420948,0,1,1,7.905694150420948,0" fill="#ff7f0e" stroke-width="2" opacity="0.5"/><path aria-label="Date: May 07, 2020; Number of prevalent COVID-19 cases: 6.80373384523" role="graphics-symbol" aria-roledescription="point" transform="translate(287.8787878787879,205.60760442191986)" d="M7.905694150420948,0A7.905694150420948,7.905694150420948,0,1,1,-7.905694150420948,0A7.905694150420948,7.905694150420948,0,1,1,7.905694150420948,0" fill="#ff7f0e" stroke-width="2" opacity="0.5"/><path aria-label="Date: May 09, 2020; Number of prevalent COVID-19 cases: 5.81257493081" role="graphics-symbol" aria-roledescription="point" transform="translate(318.1818181818182,233.92643054820422)" d="M7.905694150420948,0A7.905694150420948,7.905694150420948,0,1,1,-7.905694150420948,0A7.905694150420948,7.905694150420948,0,1,1,7.905694150420948,0" fill="#ff7f0e" stroke-width="2" opacity="0.5"/><path aria-label="Date: May 10, 2020; Number of prevalent COVID-19 cases: 5.6261872822" role="graphics-symbol" aria-roledescription="point" transform="translate(333.3333333333333,239.25179193727448)" d="M7.905694150420948,0A7.905694150420948,7.905694150420948,0,1,1,-7.905694150420948,0A7.905694150420948,7.905694150420948,0,1,1,7.905694150420948,0" fill="#ff7f0e" stroke-width="2" opacity="0.5"/><path aria-label="Date: May 14, 2020; Number of prevalent COVID-19 cases: 4.81938218441" role="graphics-symbol" aria-roledescription="point" transform="translate(393.93939393939394,262.3033661596987)" d="M7.905694150420948,0A7.905694150420948,7.905694150420948,0,1,1,-7.905694150420948,0A7.905694150420948,7.905694150420948,0,1,1,7.905694150420948,0" fill="#ff7f0e" stroke-width="2" opacity="0.5"/><path aria-label="Date: May 29, 2020; Number of prevalent COVID-19 cases: 1.8466763503" role="graphics-symbol" aria-roledescription="point" transform="translate(621.2121212121212,347.23781856291606)" d="M7.905694150420948,0A7.905694150420948,7.905694150420948,0,1,1,-7.905694150420948,0A7.905694150420948,7.905694150420948,0,1,1,7.905694150420948,0" fill="#ff7f0e" stroke-width="2" opacity="0.5"/><path aria-label="Date: Jun 02, 2020; Number of prevalent COVID-19 cases: 0.856723284316" role="graphics-symbol" aria-roledescription="point" transform="translate(681.8181818181818,375.52219187669357)" d="M7.905694150420948,0A7.905694150420948,7.905694150420948,0,1,1,-7.905694150420948,0A7.905694150420948,7.905694150420948,0,1,1,7.905694150420948,0" fill="#ff7f0e" stroke-width="2" opacity="0.5"/><path aria-label="Date: Jun 10, 2020; Number of prevalent COVID-19 cases: 0.854787005027" role="graphics-symbol" aria-roledescription="point" transform="translate(803.030303030303,375.57751414209355)" d="M7.905694150420948,0A7.905694150420948,7.905694150420948,0,1,1,-7.905694150420948,0A7.905694150420948,7.905694150420948,0,1,1,7.905694150420948,0" fill="#ff7f0e" stroke-width="2" opacity="0.5"/><path aria-label="Date: Jun 20, 2020; Number of prevalent COVID-19 cases: 0.853947687559" role="graphics-symbol" aria-roledescription="point" transform="translate(954.5454545454546,375.6014946411648)" d="M7.905694150420948,0A7.905694150420948,7.905694150420948,0,1,1,-7.905694150420948,0A7.905694150420948,7.905694150420948,0,1,1,7.905694150420948,0" fill="#ff7f0e" stroke-width="2" opacity="0.5"/><path aria-label="Date: Jun 22, 2020; Number of prevalent COVID-19 cases: 0.853977439107" role="graphics-symbol" aria-roledescription="point" transform="translate(984.8484848484849,375.6006445969488)" d="M7.905694150420948,0A7.905694150420948,7.905694150420948,0,1,1,-7.905694150420948,0A7.905694150420948,7.905694150420948,0,1,1,7.905694150420948,0" fill="#ff7f0e" stroke-width="2" opacity="0.5"/></g><g class="mark-symbol role-mark layer_2_marks" role="graphics-object" aria-roledescription="symbol mark container"><path aria-label="Date: Apr 18, 2020; Number of prevalent COVID-19 cases: 12; casesreported: reported" role="graphics-symbol" aria-roledescription="point" transform="translate(0,57.14285714285716)" d="M7.905694150420948,0A7.905694150420948,7.905694150420948,0,1,1,-7.905694150420948,0A7.905694150420948,7.905694150420948,0,1,1,7.905694150420948,0" fill="#1f77b4" stroke-width="2" opacity="0.5"/><path aria-label="Date: Apr 19, 2020; Number of prevalent COVID-19 cases: 12; casesreported: reported" role="graphics-symbol" aria-roledescription="point" transform="translate(15.151515151515152,57.14285714285716)" d="M7.905694150420948,0A7.905694150420948,7.905694150420948,0,1,1,-7.905694150420948,0A7.905694150420948,7.905694150420948,0,1,1,7.905694150420948,0" fill="#1f77b4" stroke-width="2" opacity="0.5"/><path aria-label="Date: Apr 20, 2020; Number of prevalent COVID-19 cases: 12.9472383592; casesreported: predicted" role="graphics-symbol" aria-roledescription="point" transform="translate(30.303030303030305,30.0789040235911)" d="M7.905694150420948,0A7.905694150420948,7.905694150420948,0,1,1,-7.905694150420948,0A7.905694150420948,7.905694150420948,0,1,1,7.905694150420948,0" fill="#2ca02c" stroke-width="2" opacity="0.5"/><path aria-label="Date: Apr 21, 2020; Number of prevalent COVID-19 cases: 14; casesreported: reported" role="graphics-symbol" aria-roledescription="point" transform="translate(45.45454545454545,0)" d="M7.905694150420948,0A7.905694150420948,7.905694150420948,0,1,1,-7.905694150420948,0A7.905694150420948,7.905694150420948,0,1,1,7.905694150420948,0" fill="#1f77b4" stroke-width="2" opacity="0.5"/><path aria-label="Date: Apr 22, 2020; Number of prevalent COVID-19 cases: 14; casesreported: reported" role="graphics-symbol" aria-roledescription="point" transform="translate(60.60606060606061,0)" d="M7.905694150420948,0A7.905694150420948,7.905694150420948,0,1,1,-7.905694150420948,0A7.905694150420948,7.905694150420948,0,1,1,7.905694150420948,0" fill="#1f77b4" stroke-width="2" opacity="0.5"/><path aria-label="Date: Apr 23, 2020; Number of prevalent COVID-19 cases: 13.9974279993; casesreported: predicted" role="graphics-symbol" aria-roledescription="point" transform="translate(75.75757575757576,0.07348573541876569)" d="M7.905694150420948,0A7.905694150420948,7.905694150420948,0,1,1,-7.905694150420948,0A7.905694150420948,7.905694150420948,0,1,1,7.905694150420948,0" fill="#2ca02c" stroke-width="2" opacity="0.5"/><path aria-label="Date: Apr 24, 2020; Number of prevalent COVID-19 cases: 13.8227778232; casesreported: predicted" role="graphics-symbol" aria-roledescription="point" transform="translate(90.9090909090909,5.063490764917811)" d="M7.905694150420948,0A7.905694150420948,7.905694150420948,0,1,1,-7.905694150420948,0A7.905694150420948,7.905694150420948,0,1,1,7.905694150420948,0" fill="#2ca02c" stroke-width="2" opacity="0.5"/><path aria-label="Date: Apr 25, 2020; Number of prevalent COVID-19 cases: 13.5174704022; casesreported: predicted" role="graphics-symbol" aria-roledescription="point" transform="translate(106.06060606060606,13.78655993664255)" d="M7.905694150420948,0A7.905694150420948,7.905694150420948,0,1,1,-7.905694150420948,0A7.905694150420948,7.905694150420948,0,1,1,7.905694150420948,0" fill="#2ca02c" stroke-width="2" opacity="0.5"/><path aria-label="Date: Apr 26, 2020; Number of prevalent COVID-19 cases: 13.1152778045; casesreported: predicted" role="graphics-symbol" aria-roledescription="point" transform="translate(121.21212121212122,25.277777014226643)" d="M7.905694150420948,0A7.905694150420948,7.905694150420948,0,1,1,-7.905694150420948,0A7.905694150420948,7.905694150420948,0,1,1,7.905694150420948,0" fill="#2ca02c" stroke-width="2" opacity="0.5"/><path aria-label="Date: Apr 27, 2020; Number of prevalent COVID-19 cases: 13; casesreported: reported" role="graphics-symbol" aria-roledescription="point" transform="translate(136.36363636363635,28.57142857142856)" d="M7.905694150420948,0A7.905694150420948,7.905694150420948,0,1,1,-7.905694150420948,0A7.905694150420948,7.905694150420948,0,1,1,7.905694150420948,0" fill="#1f77b4" stroke-width="2" opacity="0.5"/><path aria-label="Date: Apr 28, 2020; Number of prevalent COVID-19 cases: 10; casesreported: reported" role="graphics-symbol" aria-roledescription="point" transform="translate(151.51515151515153,114.28571428571428)" d="M7.905694150420948,0A7.905694150420948,7.905694150420948,0,1,1,-7.905694150420948,0A7.905694150420948,7.905694150420948,0,1,1,7.905694150420948,0" fill="#1f77b4" stroke-width="2" opacity="0.5"/><path aria-label="Date: Apr 29, 2020; Number of prevalent COVID-19 cases: 9.87140498668; casesreported: predicted" role="graphics-symbol" aria-roledescription="point" transform="translate(166.66666666666666,117.95985752335328)" d="M7.905694150420948,0A7.905694150420948,7.905694150420948,0,1,1,-7.905694150420948,0A7.905694150420948,7.905694150420948,0,1,1,7.905694150420948,0" fill="#2ca02c" stroke-width="2" opacity="0.5"/><path aria-label="Date: Apr 30, 2020; Number of prevalent COVID-19 cases: 9; casesreported: reported" role="graphics-symbol" aria-roledescription="point" transform="translate(181.8181818181818,142.85714285714283)" d="M7.905694150420948,0A7.905694150420948,7.905694150420948,0,1,1,-7.905694150420948,0A7.905694150420948,7.905694150420948,0,1,1,7.905694150420948,0" fill="#1f77b4" stroke-width="2" opacity="0.5"/><path aria-label="Date: May 01, 2020; Number of prevalent COVID-19 cases: 8.82997625429; casesreported: predicted" role="graphics-symbol" aria-roledescription="point" transform="translate(196.96969696969697,147.71496416310853)" d="M7.905694150420948,0A7.905694150420948,7.905694150420948,0,1,1,-7.905694150420948,0A7.905694150420948,7.905694150420948,0,1,1,7.905694150420948,0" fill="#2ca02c" stroke-width="2" opacity="0.5"/><path aria-label="Date: May 02, 2020; Number of prevalent COVID-19 cases: 8.58625861762; casesreported: predicted" role="graphics-symbol" aria-roledescription="point" transform="translate(212.12121212121212,154.67832521088235)" d="M7.905694150420948,0A7.905694150420948,7.905694150420948,0,1,1,-7.905694150420948,0A7.905694150420948,7.905694150420948,0,1,1,7.905694150420948,0" fill="#2ca02c" stroke-width="2" opacity="0.5"/><path aria-label="Date: May 03, 2020; Number of prevalent COVID-19 cases: 8; casesreported: reported" role="graphics-symbol" aria-roledescription="point" transform="translate(227.27272727272725,171.42857142857144)" d="M7.905694150420948,0A7.905694150420948,7.905694150420948,0,1,1,-7.905694150420948,0A7.905694150420948,7.905694150420948,0,1,1,7.905694150420948,0" fill="#1f77b4" stroke-width="2" opacity="0.5"/><path aria-label="Date: May 04, 2020; Number of prevalent COVID-19 cases: 7.7289647799; casesreported: predicted" role="graphics-symbol" aria-roledescription="point" transform="translate(242.42424242424244,179.17243486013916)" d="M7.905694150420948,0A7.905694150420948,7.905694150420948,0,1,1,-7.905694150420948,0A7.905694150420948,7.905694150420948,0,1,1,7.905694150420948,0" fill="#2ca02c" stroke-width="2" opacity="0.5"/><path aria-label="Date: May 05, 2020; Number of prevalent COVID-19 cases: 8; casesreported: reported" role="graphics-symbol" aria-roledescription="point" transform="translate(257.57575757575756,171.42857142857144)" d="M7.905694150420948,0A7.905694150420948,7.905694150420948,0,1,1,-7.905694150420948,0A7.905694150420948,7.905694150420948,0,1,1,7.905694150420948,0" fill="#1f77b4" stroke-width="2" opacity="0.5"/><path aria-label="Date: May 06, 2020; Number of prevalent COVID-19 cases: 7; casesreported: reported" role="graphics-symbol" aria-roledescription="point" transform="translate(272.7272727272727,200)" d="M7.905694150420948,0A7.905694150420948,7.905694150420948,0,1,1,-7.905694150420948,0A7.905694150420948,7.905694150420948,0,1,1,7.905694150420948,0" fill="#1f77b4" stroke-width="2" opacity="0.5"/><path aria-label="Date: May 07, 2020; Number of prevalent COVID-19 cases: 6.69306958529; casesreported: predicted" role="graphics-symbol" aria-roledescription="point" transform="translate(287.8787878787879,208.76944042027796)" d="M7.905694150420948,0A7.905694150420948,7.905694150420948,0,1,1,-7.905694150420948,0A7.905694150420948,7.905694150420948,0,1,1,7.905694150420948,0" fill="#2ca02c" stroke-width="2" opacity="0.5"/><path aria-label="Date: May 08, 2020; Number of prevalent COVID-19 cases: 6; casesreported: reported" role="graphics-symbol" aria-roledescription="point" transform="translate(303.03030303030306,228.57142857142856)" d="M7.905694150420948,0A7.905694150420948,7.905694150420948,0,1,1,-7.905694150420948,0A7.905694150420948,7.905694150420948,0,1,1,7.905694150420948,0" fill="#1f77b4" stroke-width="2" opacity="0.5"/><path aria-label="Date: May 09, 2020; Number of prevalent COVID-19 cases: 5.76664870581; casesreported: predicted" role="graphics-symbol" aria-roledescription="point" transform="translate(318.1818181818182,235.2386084053025)" d="M7.905694150420948,0A7.905694150420948,7.905694150420948,0,1,1,-7.905694150420948,0A7.905694150420948,7.905694150420948,0,1,1,7.905694150420948,0" fill="#2ca02c" stroke-width="2" opacity="0.5"/><path aria-label="Date: May 10, 2020; Number of prevalent COVID-19 cases: 5.525641619; casesreported: predicted" role="graphics-symbol" aria-roledescription="point" transform="translate(333.3333333333333,242.12452517139457)" d="M7.905694150420948,0A7.905694150420948,7.905694150420948,0,1,1,-7.905694150420948,0A7.905694150420948,7.905694150420948,0,1,1,7.905694150420948,0" fill="#2ca02c" stroke-width="2" opacity="0.5"/><path aria-label="Date: May 11, 2020; Number of prevalent COVID-19 cases: 4; casesreported: reported" role="graphics-symbol" aria-roledescription="point" transform="translate(348.4848484848485,285.7142857142857)" d="M7.905694150420948,0A7.905694150420948,7.905694150420948,0,1,1,-7.905694150420948,0A7.905694150420948,7.905694150420948,0,1,1,7.905694150420948,0" fill="#1f77b4" stroke-width="2" opacity="0.5"/><path aria-label="Date: May 12, 2020; Number of prevalent COVID-19 cases: 5; casesreported: reported" role="graphics-symbol" aria-roledescription="point" transform="translate(363.6363636363636,257.1428571428571)" d="M7.905694150420948,0A7.905694150420948,7.905694150420948,0,1,1,-7.905694150420948,0A7.905694150420948,7.905694150420948,0,1,1,7.905694150420948,0" fill="#1f77b4" stroke-width="2" opacity="0.5"/><path aria-label="Date: May 13, 2020; Number of prevalent COVID-19 cases: 5; casesreported: reported" role="graphics-symbol" aria-roledescription="point" transform="translate(378.7878787878788,257.1428571428571)" d="M7.905694150420948,0A7.905694150420948,7.905694150420948,0,1,1,-7.905694150420948,0A7.905694150420948,7.905694150420948,0,1,1,7.905694150420948,0" fill="#1f77b4" stroke-width="2" opacity="0.5"/><path aria-label="Date: May 14, 2020; Number of prevalent COVID-19 cases: 4.74003589622; casesreported: predicted" role="graphics-symbol" aria-roledescription="point" transform="translate(393.93939393939394,264.5704029652199)" d="M7.905694150420948,0A7.905694150420948,7.905694150420948,0,1,1,-7.905694150420948,0A7.905694150420948,7.905694150420948,0,1,1,7.905694150420948,0" fill="#2ca02c" stroke-width="2" opacity="0.5"/><path aria-label="Date: May 15, 2020; Number of prevalent COVID-19 cases: 4; casesreported: reported" role="graphics-symbol" aria-roledescription="point" transform="translate(409.0909090909091,285.7142857142857)" d="M7.905694150420948,0A7.905694150420948,7.905694150420948,0,1,1,-7.905694150420948,0A7.905694150420948,7.905694150420948,0,1,1,7.905694150420948,0" fill="#1f77b4" stroke-width="2" opacity="0.5"/><path aria-label="Date: May 16, 2020; Number of prevalent COVID-19 cases: 4; casesreported: reported" role="graphics-symbol" aria-roledescription="point" transform="translate(424.24242424242425,285.7142857142857)" d="M7.905694150420948,0A7.905694150420948,7.905694150420948,0,1,1,-7.905694150420948,0A7.905694150420948,7.905694150420948,0,1,1,7.905694150420948,0" fill="#1f77b4" stroke-width="2" opacity="0.5"/><path aria-label="Date: May 17, 2020; Number of prevalent COVID-19 cases: 4; casesreported: reported" role="graphics-symbol" aria-roledescription="point" transform="translate(439.3939393939394,285.7142857142857)" d="M7.905694150420948,0A7.905694150420948,7.905694150420948,0,1,1,-7.905694150420948,0A7.905694150420948,7.905694150420948,0,1,1,7.905694150420948,0" fill="#1f77b4" stroke-width="2" opacity="0.5"/><path aria-label="Date: May 18, 2020; Number of prevalent COVID-19 cases: 4; casesreported: reported" role="graphics-symbol" aria-roledescription="point" transform="translate(454.5454545454545,285.7142857142857)" d="M7.905694150420948,0A7.905694150420948,7.905694150420948,0,1,1,-7.905694150420948,0A7.905694150420948,7.905694150420948,0,1,1,7.905694150420948,0" fill="#1f77b4" stroke-width="2" opacity="0.5"/><path aria-label="Date: May 19, 2020; Number of prevalent COVID-19 cases: 4; casesreported: reported" role="graphics-symbol" aria-roledescription="point" transform="translate(469.69696969696975,285.7142857142857)" d="M7.905694150420948,0A7.905694150420948,7.905694150420948,0,1,1,-7.905694150420948,0A7.905694150420948,7.905694150420948,0,1,1,7.905694150420948,0" fill="#1f77b4" stroke-width="2" opacity="0.5"/><path aria-label="Date: May 20, 2020; Number of prevalent COVID-19 cases: 4; casesreported: reported" role="graphics-symbol" aria-roledescription="point" transform="translate(484.8484848484849,285.7142857142857)" d="M7.905694150420948,0A7.905694150420948,7.905694150420948,0,1,1,-7.905694150420948,0A7.905694150420948,7.905694150420948,0,1,1,7.905694150420948,0" fill="#1f77b4" stroke-width="2" opacity="0.5"/><path aria-label="Date: May 21, 2020; Number of prevalent COVID-19 cases: 4; casesreported: reported" role="graphics-symbol" aria-roledescription="point" transform="translate(500,285.7142857142857)" d="M7.905694150420948,0A7.905694150420948,7.905694150420948,0,1,1,-7.905694150420948,0A7.905694150420948,7.905694150420948,0,1,1,7.905694150420948,0" fill="#1f77b4" stroke-width="2" opacity="0.5"/><path aria-label="Date: May 22, 2020; Number of prevalent COVID-19 cases: 3; casesreported: reported" role="graphics-symbol" aria-roledescription="point" transform="translate(515.1515151515151,314.2857142857143)" d="M7.905694150420948,0A7.905694150420948,7.905694150420948,0,1,1,-7.905694150420948,0A7.905694150420948,7.905694150420948,0,1,1,7.905694150420948,0" fill="#1f77b4" stroke-width="2" opacity="0.5"/><path aria-label="Date: May 23, 2020; Number of prevalent COVID-19 cases: 3; casesreported: reported" role="graphics-symbol" aria-roledescription="point" transform="translate(530.3030303030303,314.2857142857143)" d="M7.905694150420948,0A7.905694150420948,7.905694150420948,0,1,1,-7.905694150420948,0A7.905694150420948,7.905694150420948,0,1,1,7.905694150420948,0" fill="#1f77b4" stroke-width="2" opacity="0.5"/><path aria-label="Date: May 24, 2020; Number of prevalent COVID-19 cases: 3; casesreported: reported" role="graphics-symbol" aria-roledescription="point" transform="translate(545.4545454545454,314.2857142857143)" d="M7.905694150420948,0A7.905694150420948,7.905694150420948,0,1,1,-7.905694150420948,0A7.905694150420948,7.905694150420948,0,1,1,7.905694150420948,0" fill="#1f77b4" stroke-width="2" opacity="0.5"/><path aria-label="Date: May 25, 2020; Number of prevalent COVID-19 cases: 3; casesreported: reported" role="graphics-symbol" aria-roledescription="point" transform="translate(560.6060606060605,314.2857142857143)" d="M7.905694150420948,0A7.905694150420948,7.905694150420948,0,1,1,-7.905694150420948,0A7.905694150420948,7.905694150420948,0,1,1,7.905694150420948,0" fill="#1f77b4" stroke-width="2" opacity="0.5"/><path aria-label="Date: May 26, 2020; Number of prevalent COVID-19 cases: 2; casesreported: reported" role="graphics-symbol" aria-roledescription="point" transform="translate(575.7575757575758,342.8571428571429)" d="M7.905694150420948,0A7.905694150420948,7.905694150420948,0,1,1,-7.905694150420948,0A7.905694150420948,7.905694150420948,0,1,1,7.905694150420948,0" fill="#1f77b4" stroke-width="2" opacity="0.5"/><path aria-label="Date: May 27, 2020; Number of prevalent COVID-19 cases: 2; casesreported: reported" role="graphics-symbol" aria-roledescription="point" transform="translate(590.909090909091,342.8571428571429)" d="M7.905694150420948,0A7.905694150420948,7.905694150420948,0,1,1,-7.905694150420948,0A7.905694150420948,7.905694150420948,0,1,1,7.905694150420948,0" fill="#1f77b4" stroke-width="2" opacity="0.5"/><path aria-label="Date: May 28, 2020; Number of prevalent COVID-19 cases: 2; casesreported: reported" role="graphics-symbol" aria-roledescription="point" transform="translate(606.0606060606061,342.8571428571429)" d="M7.905694150420948,0A7.905694150420948,7.905694150420948,0,1,1,-7.905694150420948,0A7.905694150420948,7.905694150420948,0,1,1,7.905694150420948,0" fill="#1f77b4" stroke-width="2" opacity="0.5"/><path aria-label="Date: May 29, 2020; Number of prevalent COVID-19 cases: 1.99875027658; casesreported: predicted" role="graphics-symbol" aria-roledescription="point" transform="translate(621.2121212121212,342.8928492405474)" d="M7.905694150420948,0A7.905694150420948,7.905694150420948,0,1,1,-7.905694150420948,0A7.905694150420948,7.905694150420948,0,1,1,7.905694150420948,0" fill="#2ca02c" stroke-width="2" opacity="0.5"/><path aria-label="Date: May 30, 2020; Number of prevalent COVID-19 cases: 2; casesreported: reported" role="graphics-symbol" aria-roledescription="point" transform="translate(636.3636363636364,342.8571428571429)" d="M7.905694150420948,0A7.905694150420948,7.905694150420948,0,1,1,-7.905694150420948,0A7.905694150420948,7.905694150420948,0,1,1,7.905694150420948,0" fill="#1f77b4" stroke-width="2" opacity="0.5"/><path aria-label="Date: May 31, 2020; Number of prevalent COVID-19 cases: 1; casesreported: reported" role="graphics-symbol" aria-roledescription="point" transform="translate(651.5151515151515,371.42857142857144)" d="M7.905694150420948,0A7.905694150420948,7.905694150420948,0,1,1,-7.905694150420948,0A7.905694150420948,7.905694150420948,0,1,1,7.905694150420948,0" fill="#1f77b4" stroke-width="2" opacity="0.5"/><path aria-label="Date: Jun 01, 2020; Number of prevalent COVID-19 cases: 1; casesreported: reported" role="graphics-symbol" aria-roledescription="point" transform="translate(666.6666666666666,371.42857142857144)" d="M7.905694150420948,0A7.905694150420948,7.905694150420948,0,1,1,-7.905694150420948,0A7.905694150420948,7.905694150420948,0,1,1,7.905694150420948,0" fill="#1f77b4" stroke-width="2" opacity="0.5"/><path aria-label="Date: Jun 02, 2020; Number of prevalent COVID-19 cases: 1.13173267302; casesreported: predicted" role="graphics-symbol" aria-roledescription="point" transform="translate(681.8181818181818,367.6647807708787)" d="M7.905694150420948,0A7.905694150420948,7.905694150420948,0,1,1,-7.905694150420948,0A7.905694150420948,7.905694150420948,0,1,1,7.905694150420948,0" fill="#2ca02c" stroke-width="2" opacity="0.5"/><path aria-label="Date: Jun 03, 2020; Number of prevalent COVID-19 cases: 1; casesreported: reported" role="graphics-symbol" aria-roledescription="point" transform="translate(696.969696969697,371.42857142857144)" d="M7.905694150420948,0A7.905694150420948,7.905694150420948,0,1,1,-7.905694150420948,0A7.905694150420948,7.905694150420948,0,1,1,7.905694150420948,0" fill="#1f77b4" stroke-width="2" opacity="0.5"/><path aria-label="Date: Jun 04, 2020; Number of prevalent COVID-19 cases: 1; casesreported: reported" role="graphics-symbol" aria-roledescription="point" transform="translate(712.1212121212121,371.42857142857144)" d="M7.905694150420948,0A7.905694150420948,7.905694150420948,0,1,1,-7.905694150420948,0A7.905694150420948,7.905694150420948,0,1,1,7.905694150420948,0" fill="#1f77b4" stroke-width="2" opacity="0.5"/><path aria-label="Date: Jun 05, 2020; Number of prevalent COVID-19 cases: 1; casesreported: reported" role="graphics-symbol" aria-roledescription="point" transform="translate(727.2727272727273,371.42857142857144)" d="M7.905694150420948,0A7.905694150420948,7.905694150420948,0,1,1,-7.905694150420948,0A7.905694150420948,7.905694150420948,0,1,1,7.905694150420948,0" fill="#1f77b4" stroke-width="2" opacity="0.5"/><path aria-label="Date: Jun 06, 2020; Number of prevalent COVID-19 cases: 1; casesreported: reported" role="graphics-symbol" aria-roledescription="point" transform="translate(742.4242424242424,371.42857142857144)" d="M7.905694150420948,0A7.905694150420948,7.905694150420948,0,1,1,-7.905694150420948,0A7.905694150420948,7.905694150420948,0,1,1,7.905694150420948,0" fill="#1f77b4" stroke-width="2" opacity="0.5"/><path aria-label="Date: Jun 07, 2020; Number of prevalent COVID-19 cases: 1; casesreported: reported" role="graphics-symbol" aria-roledescription="point" transform="translate(757.5757575757576,371.42857142857144)" d="M7.905694150420948,0A7.905694150420948,7.905694150420948,0,1,1,-7.905694150420948,0A7.905694150420948,7.905694150420948,0,1,1,7.905694150420948,0" fill="#1f77b4" stroke-width="2" opacity="0.5"/><path aria-label="Date: Jun 08, 2020; Number of prevalent COVID-19 cases: 1; casesreported: reported" role="graphics-symbol" aria-roledescription="point" transform="translate(772.7272727272727,371.42857142857144)" d="M7.905694150420948,0A7.905694150420948,7.905694150420948,0,1,1,-7.905694150420948,0A7.905694150420948,7.905694150420948,0,1,1,7.905694150420948,0" fill="#1f77b4" stroke-width="2" opacity="0.5"/><path aria-label="Date: Jun 09, 2020; Number of prevalent COVID-19 cases: 1; casesreported: reported" role="graphics-symbol" aria-roledescription="point" transform="translate(787.8787878787879,371.42857142857144)" d="M7.905694150420948,0A7.905694150420948,7.905694150420948,0,1,1,-7.905694150420948,0A7.905694150420948,7.905694150420948,0,1,1,7.905694150420948,0" fill="#1f77b4" stroke-width="2" opacity="0.5"/><path aria-label="Date: Jun 10, 2020; Number of prevalent COVID-19 cases: 1.03634644598; casesreported: predicted" role="graphics-symbol" aria-roledescription="point" transform="translate(803.030303030303,370.39010154329384)" d="M7.905694150420948,0A7.905694150420948,7.905694150420948,0,1,1,-7.905694150420948,0A7.905694150420948,7.905694150420948,0,1,1,7.905694150420948,0" fill="#2ca02c" stroke-width="2" opacity="0.5"/><path aria-label="Date: Jun 11, 2020; Number of prevalent COVID-19 cases: 1; casesreported: reported" role="graphics-symbol" aria-roledescription="point" transform="translate(818.1818181818182,371.42857142857144)" d="M7.905694150420948,0A7.905694150420948,7.905694150420948,0,1,1,-7.905694150420948,0A7.905694150420948,7.905694150420948,0,1,1,7.905694150420948,0" fill="#1f77b4" stroke-width="2" opacity="0.5"/><path aria-label="Date: Jun 12, 2020; Number of prevalent COVID-19 cases: 1; casesreported: reported" role="graphics-symbol" aria-roledescription="point" transform="translate(833.3333333333334,371.42857142857144)" d="M7.905694150420948,0A7.905694150420948,7.905694150420948,0,1,1,-7.905694150420948,0A7.905694150420948,7.905694150420948,0,1,1,7.905694150420948,0" fill="#1f77b4" stroke-width="2" opacity="0.5"/><path aria-label="Date: Jun 13, 2020; Number of prevalent COVID-19 cases: 1; casesreported: reported" role="graphics-symbol" aria-roledescription="point" transform="translate(848.4848484848485,371.42857142857144)" d="M7.905694150420948,0A7.905694150420948,7.905694150420948,0,1,1,-7.905694150420948,0A7.905694150420948,7.905694150420948,0,1,1,7.905694150420948,0" fill="#1f77b4" stroke-width="2" opacity="0.5"/><path aria-label="Date: Jun 14, 2020; Number of prevalent COVID-19 cases: 1; casesreported: reported" role="graphics-symbol" aria-roledescription="point" transform="translate(863.6363636363636,371.42857142857144)" d="M7.905694150420948,0A7.905694150420948,7.905694150420948,0,1,1,-7.905694150420948,0A7.905694150420948,7.905694150420948,0,1,1,7.905694150420948,0" fill="#1f77b4" stroke-width="2" opacity="0.5"/><path aria-label="Date: Jun 15, 2020; Number of prevalent COVID-19 cases: 1; casesreported: reported" role="graphics-symbol" aria-roledescription="point" transform="translate(878.7878787878788,371.42857142857144)" d="M7.905694150420948,0A7.905694150420948,7.905694150420948,0,1,1,-7.905694150420948,0A7.905694150420948,7.905694150420948,0,1,1,7.905694150420948,0" fill="#1f77b4" stroke-width="2" opacity="0.5"/><path aria-label="Date: Jun 16, 2020; Number of prevalent COVID-19 cases: 1; casesreported: reported" role="graphics-symbol" aria-roledescription="point" transform="translate(893.9393939393939,371.42857142857144)" d="M7.905694150420948,0A7.905694150420948,7.905694150420948,0,1,1,-7.905694150420948,0A7.905694150420948,7.905694150420948,0,1,1,7.905694150420948,0" fill="#1f77b4" stroke-width="2" opacity="0.5"/><path aria-label="Date: Jun 17, 2020; Number of prevalent COVID-19 cases: 1; casesreported: reported" role="graphics-symbol" aria-roledescription="point" transform="translate(909.090909090909,371.42857142857144)" d="M7.905694150420948,0A7.905694150420948,7.905694150420948,0,1,1,-7.905694150420948,0A7.905694150420948,7.905694150420948,0,1,1,7.905694150420948,0" fill="#1f77b4" stroke-width="2" opacity="0.5"/><path aria-label="Date: Jun 18, 2020; Number of prevalent COVID-19 cases: 1; casesreported: reported" role="graphics-symbol" aria-roledescription="point" transform="translate(924.2424242424242,371.42857142857144)" d="M7.905694150420948,0A7.905694150420948,7.905694150420948,0,1,1,-7.905694150420948,0A7.905694150420948,7.905694150420948,0,1,1,7.905694150420948,0" fill="#1f77b4" stroke-width="2" opacity="0.5"/><path aria-label="Date: Jun 19, 2020; Number of prevalent COVID-19 cases: 1; casesreported: reported" role="graphics-symbol" aria-roledescription="point" transform="translate(939.3939393939395,371.42857142857144)" d="M7.905694150420948,0A7.905694150420948,7.905694150420948,0,1,1,-7.905694150420948,0A7.905694150420948,7.905694150420948,0,1,1,7.905694150420948,0" fill="#1f77b4" stroke-width="2" opacity="0.5"/><path aria-label="Date: Jun 20, 2020; Number of prevalent COVID-19 cases: 0.99499945283; casesreported: predicted" role="graphics-symbol" aria-roledescription="point" transform="translate(954.5454545454546,371.57144420486026)" d="M7.905694150420948,0A7.905694150420948,7.905694150420948,0,1,1,-7.905694150420948,0A7.905694150420948,7.905694150420948,0,1,1,7.905694150420948,0" fill="#2ca02c" stroke-width="2" opacity="0.5"/><path aria-label="Date: Jun 21, 2020; Number of prevalent COVID-19 cases: 1; casesreported: reported" role="graphics-symbol" aria-roledescription="point" transform="translate(969.6969696969697,371.42857142857144)" d="M7.905694150420948,0A7.905694150420948,7.905694150420948,0,1,1,-7.905694150420948,0A7.905694150420948,7.905694150420948,0,1,1,7.905694150420948,0" fill="#1f77b4" stroke-width="2" opacity="0.5"/><path aria-label="Date: Jun 22, 2020; Number of prevalent COVID-19 cases: 0.996465092568; casesreported: predicted" role="graphics-symbol" aria-roledescription="point" transform="translate(984.8484848484849,371.5295687837727)" d="M7.905694150420948,0A7.905694150420948,7.905694150420948,0,1,1,-7.905694150420948,0A7.905694150420948,7.905694150420948,0,1,1,7.905694150420948,0" fill="#2ca02c" stroke-width="2" opacity="0.5"/><path aria-label="Date: Jun 23, 2020; Number of prevalent COVID-19 cases: 1; casesreported: reported" role="graphics-symbol" aria-roledescription="point" transform="translate(1000,371.42857142857144)" d="M7.905694150420948,0A7.905694150420948,7.905694150420948,0,1,1,-7.905694150420948,0A7.905694150420948,7.905694150420948,0,1,1,7.905694150420948,0" fill="#1f77b4" stroke-width="2" opacity="0.5"/></g><g class="mark-line role-mark layer_3_marks" role="graphics-object" aria-roledescription="line mark container"><path aria-label="Date: Apr 18, 2020; Number of prevalent COVID-19 cases: 12" role="graphics-symbol" aria-roledescription="line mark" d="M0,57.14285714285716L15.151515151515152,57.14285714285716L30.303030303030305,63.07270614801155L45.45454545454545,0L60.60606060606061,0L75.75757575757576,6.900577429859478L90.9090909090909,13.822862395505586L106.06060606060606,20.762311820651867L121.21212121212122,27.71412197652512L136.36363636363635,28.57142857142856L151.51515151515153,114.28571428571428L166.66666666666666,120.41967114655768L181.8181818181818,142.85714285714283L196.96969696969697,148.8051997220308L212.12121212121212,154.74792005651233L227.27272727272725,171.42857142857144L242.42424242424244,177.22528519705781L257.57575757575756,171.42857142857144L272.7272727272727,200L287.8787878787879,205.60760442191986L303.03030303030306,228.57142857142856L318.1818181818182,233.92643054820422L333.3333333333333,239.25179193727448L348.4848484848485,285.7142857142857L363.6363636363636,257.1428571428571L378.7878787878788,257.1428571428571L393.93939393939394,262.3033661596987L409.0909090909091,285.7142857142857L424.24242424242425,285.7142857142857L439.3939393939394,285.7142857142857L454.5454545454545,285.7142857142857L469.69696969696975,285.7142857142857L484.8484848484849,285.7142857142857L500,285.7142857142857L515.1515151515151,314.2857142857143L530.3030303030303,314.2857142857143L545.4545454545454,314.2857142857143L560.6060606060605,314.2857142857143L575.7575757575758,342.8571428571429L590.909090909091,342.8571428571429L606.0606060606061,342.8571428571429L621.2121212121212,347.23781856291606L636.3636363636364,342.8571428571429L651.5151515151515,371.42857142857144L666.6666666666666,371.42857142857144L681.8181818181818,375.52219187669357L696.969696969697,371.42857142857144L712.1212121212121,371.42857142857144L727.2727272727273,371.42857142857144L742.4242424242424,371.42857142857144L757.5757575757576,371.42857142857144L772.7272727272727,371.42857142857144L787.8787878787879,371.42857142857144L803.030303030303,375.57751414209355L818.1818181818182,371.42857142857144L833.3333333333334,371.42857142857144L848.4848484848485,371.42857142857144L863.6363636363636,371.42857142857144L878.7878787878788,371.42857142857144L893.9393939393939,371.42857142857144L909.090909090909,371.42857142857144L924.2424242424242,371.42857142857144L939.3939393939395,371.42857142857144L954.5454545454546,375.6014946411648L969.6969696969697,371.42857142857144L984.8484848484849,375.6006445969488L1000,371.42857142857144" stroke="#1f77b4" stroke-width="2" opacity="0.7"/></g><g class="mark-group role-legend" role="graphics-symbol" aria-roledescription="legend" aria-label="Symbol legend titled 'Prevalent cases reported?' for fill color with 2 values: predicted, reported"><g transform="translate(1018,0)"><path class="background" aria-hidden="true" d="M0,0h137v40h-137Z" pointer-events="none"/><g><g class="mark-group role-legend-entry"><g transform="translate(0,16)"><path class="background" aria-hidden="true" d="M0,0h0v0h0Z" pointer-events="none"/><g><g class="mark-group role-scope" role="graphics-object" aria-roledescription="group mark container"><g transform="translate(0,0)"><path class="background" aria-hidden="true" d="M0,0h59v11h-59Z" pointer-events="none" opacity="1"/><g><g class="mark-symbol role-legend-symbol" pointer-events="none"><path transform="translate(6,6)" d="M5,0A5,5,0,1,1,-5,0A5,5,0,1,1,5,0" fill="#2ca02c" stroke-width="1.5" opacity="0.5"/></g><g class="mark-text role-legend-label" pointer-events="none"><text text-anchor="start" transform="translate(16,9)" font-family="sans-serif" font-size="10px" fill="#000" opacity="1">predicted</text></g></g><path class="foreground" aria-hidden="true" d="" pointer-events="none" display="none"/></g><g transform="translate(0,13)"><path class="background" aria-hidden="true" d="M0,0h59v11h-59Z" pointer-events="none" opacity="1"/><g><g class="mark-symbol role-legend-symbol" pointer-events="none"><path transform="translate(6,6)" d="M5,0A5,5,0,1,1,-5,0A5,5,0,1,1,5,0" fill="#1f77b4" stroke-width="1.5" opacity="0.5"/></g><g class="mark-text role-legend-label" pointer-events="none"><text text-anchor="start" transform="translate(16,9)" font-family="sans-serif" font-size="10px" fill="#000" opacity="1">reported</text></g></g><path class="foreground" aria-hidden="true" d="" pointer-events="none" display="none"/></g></g></g><path class="foreground" aria-hidden="true" d="" pointer-events="none" display="none"/></g></g><g class="mark-text role-legend-title" pointer-events="none"><text text-anchor="start" transform="translate(0,9)" font-family="sans-serif" font-size="11px" font-weight="bold" fill="#000" opacity="1">Prevalent cases reported?</text></g></g><path class="foreground" aria-hidden="true" d="" pointer-events="none" display="none"/></g></g></g><path class="foreground" aria-hidden="true" d="" display="none"/></g></g></g></svg>
